<svg xmlns="http://www.w3.org/2000/svg" viewBox="0 0 750 500"><g id="freepik--background-complete--inject-117"><polygon points="521.75 0 502.1 464.25 290.36 464.25 521.75 0" style="fill:#dbdbdb;opacity:0.2"></polygon><polygon points="521.73 0 542.07 464.25 330.33 464.25 521.73 0" style="fill:#dbdbdb;opacity:0.2"></polygon><polygon points="228.25 0 247.9 464.25 459.64 464.25 228.25 0" style="fill:#dbdbdb;opacity:0.2"></polygon><polygon points="228.28 0 207.93 464.25 419.67 464.25 228.28 0" style="fill:#dbdbdb;opacity:0.2"></polygon><polygon points="349.07 203.26 342.63 204.46 341.19 211.25 339.75 204.46 333.3 203.26 339.72 201.69 341.19 195.28 342.66 201.69 349.07 203.26" style="fill:#dbdbdb"></polygon><polygon points="545.02 81.09 538.58 82.28 537.14 89.08 535.7 82.28 529.26 81.09 535.67 79.52 537.14 73.11 538.61 79.52 545.02 81.09" style="fill:#dbdbdb"></polygon><polygon points="341.38 44.13 334.93 45.32 333.49 52.12 332.05 45.32 325.61 44.13 332.02 42.56 333.49 36.15 334.96 42.56 341.38 44.13" style="fill:#dbdbdb"></polygon><polygon points="572.15 108.58 568.55 109.25 567.75 113.05 566.94 109.25 563.34 108.58 566.92 107.71 567.75 104.12 568.57 107.71 572.15 108.58" style="fill:#dbdbdb"></polygon><polygon points="161.81 64.58 158.21 65.24 157.41 69.04 156.6 65.24 153 64.57 156.59 63.7 157.41 60.11 158.23 63.7 161.81 64.58" style="fill:#dbdbdb"></polygon><polygon points="310.21 151.26 306.61 151.92 305.81 155.72 305 151.92 301.4 151.25 304.99 150.38 305.81 146.79 306.63 150.38 310.21 151.26" style="fill:#dbdbdb"></polygon><polygon points="418.47 89.58 414.87 90.25 414.06 94.04 413.26 90.25 409.66 89.58 413.24 88.7 414.06 85.12 414.88 88.7 418.47 89.58" style="fill:#dbdbdb"></polygon><polygon points="89.18 236.66 85.58 237.33 84.77 241.12 83.97 237.33 80.36 236.66 83.95 235.78 84.77 232.19 85.59 235.78 89.18 236.66" style="fill:#dbdbdb"></polygon><polygon points="669.63 254.61 666.03 255.28 665.23 259.07 664.42 255.28 660.82 254.61 664.41 253.73 665.23 250.15 666.05 253.73 669.63 254.61" style="fill:#dbdbdb"></polygon><polygon points="427.32 169.86 423.72 170.53 422.92 174.33 422.11 170.53 418.51 169.86 422.1 168.99 422.92 165.4 423.74 168.99 427.32 169.86" style="fill:#dbdbdb"></polygon><path d="M442.36,290.59a1,1,0,0,0,0,2.09A1,1,0,0,0,442.36,290.59Z" style="fill:#dbdbdb"></path><path d="M469.05,80.05a1,1,0,0,0,0,2.09A1,1,0,0,0,469.05,80.05Z" style="fill:#dbdbdb"></path><path d="M654.21,285.7a1,1,0,0,0,0,2.09A1,1,0,0,0,654.21,285.7Z" style="fill:#dbdbdb"></path><path d="M138.54,76.9a1,1,0,0,0,0,2.09A1,1,0,0,0,138.54,76.9Z" style="fill:#dbdbdb"></path><path d="M161.81,137.05a1,1,0,0,0,0,2.08A1,1,0,0,0,161.81,137.05Z" style="fill:#dbdbdb"></path><path d="M281.38,77.64a1,1,0,0,0,0,2.08A1,1,0,0,0,281.38,77.64Z" style="fill:#dbdbdb"></path><path d="M569.51,77.94a.74.74,0,0,0,0,1.48A.74.74,0,0,0,569.51,77.94Z" style="fill:#dbdbdb"></path><path d="M95.41,225.12a.74.74,0,0,0,0,1.48A.74.74,0,0,0,95.41,225.12Z" style="fill:#dbdbdb"></path><path d="M203,128.1a.74.74,0,0,0,0,1.48A.74.74,0,0,0,203,128.1Z" style="fill:#dbdbdb"></path><path d="M631,98.78c-2.58,0-2.58,4,0,4S633.54,98.78,631,98.78Z" style="fill:#dbdbdb"></path><path d="M187.61,105.6c-2.58,0-2.58,4,0,4S190.19,105.6,187.61,105.6Z" style="fill:#dbdbdb"></path><path d="M443.12,123.49c-2.58,0-2.59,4,0,4S445.7,123.49,443.12,123.49Z" style="fill:#dbdbdb"></path><rect x="373.6" width="2.8" height="20.36" style="fill:#c7c7c7"></rect><rect x="369.82" y="18.14" width="10.37" height="2.59" style="fill:#c7c7c7"></rect><circle cx="375" cy="61.96" r="41.59" transform="translate(6.82 156.34) rotate(-23.76)" style="fill:#ebebeb"></circle><path d="M375,103.53c-18.48,0-33.52-18.65-33.52-41.57s15-41.58,33.52-41.58S408.52,39,408.52,62,393.48,103.53,375,103.53Zm0-82.45c-18.1,0-32.82,18.34-32.82,40.88S356.9,102.83,375,102.83,407.82,84.5,407.82,62,393.1,21.08,375,21.08Z" style="fill:#dbdbdb"></path><path d="M375,103.53c-12.58,0-22.81-18.65-22.81-41.57S362.42,20.38,375,20.38,397.81,39,397.81,62,387.58,103.53,375,103.53Zm0-82.45c-12.19,0-22.11,18.34-22.11,40.88s9.92,40.87,22.11,40.87S397.11,84.5,397.11,62,387.19,21.08,375,21.08Z" style="fill:#dbdbdb"></path><path d="M375,103.53c-6.71,0-12-18.26-12-41.57s5.26-41.58,12-41.58S387,38.64,387,62,381.71,103.53,375,103.53Zm0-82.45c-6.21,0-11.27,18.34-11.27,40.88s5.06,40.87,11.27,40.87S386.27,84.5,386.27,62,381.21,21.08,375,21.08Z" style="fill:#dbdbdb"></path><rect x="374.65" y="20.73" width="0.7" height="82.45" style="fill:#dbdbdb"></rect><path d="M394.31,25.11H355.7c.45-.24.92-.47,1.39-.7h35.82C393.38,24.64,393.85,24.87,394.31,25.11Z" style="fill:#dbdbdb"></path><path d="M403.93,32.08H346.07c.24-.24.49-.47.75-.7h56.37C403.44,31.61,403.69,31.84,403.93,32.08Z" style="fill:#dbdbdb"></path><path d="M410.88,40.91H339.12l.42-.7h70.92Z" style="fill:#dbdbdb"></path><path d="M415.3,51.61H334.71c.06-.23.12-.47.19-.7h80.2C415.17,51.14,415.23,51.38,415.3,51.61Z" style="fill:#dbdbdb"></path><path d="M416.59,62c0,.12,0,.23,0,.35H333.42c0-.12,0-.23,0-.35s0-.23,0-.35h83.16C416.59,61.73,416.59,61.84,416.59,62Z" style="fill:#dbdbdb"></path><path d="M394.29,98.81c-.45.24-.92.47-1.39.7H357.1l-1.4-.7Z" style="fill:#dbdbdb"></path><path d="M403.93,91.83c-.24.24-.49.47-.74.7H346.82c-.26-.23-.51-.46-.75-.7Z" style="fill:#dbdbdb"></path><path d="M410.88,83l-.42.7H339.54l-.42-.7Z" style="fill:#dbdbdb"></path><path d="M415.3,72.3c-.07.23-.13.47-.19.7H334.89l-.18-.7Z" style="fill:#dbdbdb"></path><path d="M394.31,25.11H355.7c.45-.24.92-.47,1.39-.7h35.82C393.38,24.64,393.85,24.87,394.31,25.11Z" style="fill:#dbdbdb"></path><path d="M403.93,32.08H346.07c.24-.24.49-.47.74-.7h56.38C403.44,31.61,403.69,31.84,403.93,32.08Z" style="fill:#dbdbdb"></path><path d="M410.88,40.91H339.12c.14-.23.28-.47.42-.69h70.92C410.6,40.44,410.74,40.68,410.88,40.91Z" style="fill:#dbdbdb"></path><path d="M415.3,51.61H334.7s0,0,0,0c0-.22.12-.43.18-.65h80.2c.07.22.13.43.18.65C415.29,51.58,415.29,51.6,415.3,51.61Z" style="fill:#dbdbdb"></path><path d="M416.59,62c0,.12,0,.23,0,.35H333.42c0-.12,0-.23,0-.35s0-.23,0-.35h83.16C416.59,61.73,416.59,61.84,416.59,62Z" style="fill:#dbdbdb"></path><path d="M394.29,98.8c-.41.22-.83.44-1.26.64l-.13.07H357.1l-.13-.07c-.43-.2-.84-.42-1.26-.64Z" style="fill:#dbdbdb"></path><path d="M403.93,91.83c-.24.24-.49.47-.74.7H346.81c-.25-.23-.5-.46-.74-.7Z" style="fill:#dbdbdb"></path><path d="M410.88,83c-.14.23-.28.47-.42.69H339.54c-.14-.22-.28-.46-.42-.69Z" style="fill:#dbdbdb"></path><path d="M415.3,72.31s0,0,0,0c0,.21-.11.42-.18.64H334.9c-.06-.22-.13-.43-.18-.64,0,0,0,0,0,0Z" style="fill:#dbdbdb"></path><path d="M364.45,98.81h-3.64a33.52,33.52,0,0,1-7.57-6.28h6.32A29.51,29.51,0,0,0,364.45,98.81Z" style="fill:#fff"></path><path d="M396.76,31.38h-6.33a29.64,29.64,0,0,0-4.87-6.27h3.64A33.43,33.43,0,0,1,396.76,31.38Z" style="fill:#dbdbdb"></path><path d="M355.33,40.91a63.1,63.1,0,0,0-2.32,10h-9.6a46.3,46.3,0,0,1,3.46-10Z" style="fill:#fff"></path><path d="M363.39,72.3h-9.78a71.82,71.82,0,0,1-.72-10H363C363,65.77,363.17,69.11,363.39,72.3Z" style="fill:#dbdbdb"></path><path d="M389.65,92.53a27.09,27.09,0,0,1-5.09,6.28h-3.94a32.49,32.49,0,0,0,2.57-6.28Z" style="fill:#dbdbdb"></path><path d="M397.11,61.61H387c0-3.46-.13-6.81-.36-10h9.78A74.93,74.93,0,0,1,397.11,61.61Z" style="fill:#fff"></path><path d="M366.61,32.08a69.32,69.32,0,0,0-1.86,8.13h-8.47a45.44,45.44,0,0,1,3.64-8.13Z" style="fill:#dbdbdb"></path><path d="M374.65,73V83h-9.3c-.52-3.09-.92-6.45-1.2-10Z" style="fill:#fff"></path><path d="M359.48,25.11a34.43,34.43,0,0,0-7.17,6.27h-5.49a41.41,41.41,0,0,1,8.88-6.27Z" style="fill:#fff"></path><path d="M346.1,83h-7a41.59,41.59,0,0,1-4.23-10h7.8A46.94,46.94,0,0,0,346.1,83Z" style="fill:#dbdbdb"></path><path d="M415.1,50.91h-7.78a47,47,0,0,0-3.43-10h7A40.94,40.94,0,0,1,415.1,50.91Z" style="fill:#dbdbdb"></path><path d="M415.11,73a41.19,41.19,0,0,1-4.23,10h-7a47,47,0,0,0,3.43-10Z" style="fill:#fff"></path><path d="M406.6,73a46,46,0,0,1-3.48,10h-8.46A61.78,61.78,0,0,0,397,73Z" style="fill:#dbdbdb"></path><path d="M385.85,50.91h-10.5v-10h9.3C385.17,44,385.57,47.35,385.85,50.91Z" style="fill:#dbdbdb"></path><path d="M410.46,40.22h-6.89a41.29,41.29,0,0,0-5.29-8.14h5.65A41.09,41.09,0,0,1,410.46,40.22Z" style="fill:#fff"></path><path d="M403.19,92.53a41.08,41.08,0,0,1-8.9,6.27h-3.78a34.23,34.23,0,0,0,7.18-6.27Z" style="fill:#dbdbdb"></path></g><g id="freepik--Floor--inject-117"><path d="M54.91,464.14c205.07-.61,435.11-.62,640.18,0-205.07.61-435.11.61-640.18,0Z" style="fill:#263238"></path></g><g id="freepik--Lights--inject-117"><g style="opacity:0.5"><polygon points="750 0 285.56 464.25 537.3 464.25 750 0" style="fill:#B0BEC5;opacity:0.2"></polygon><polygon points="750 0 325.56 464.25 507.3 464.25 750 0" style="fill:#B0BEC5;opacity:0.2"></polygon><polygon points="0 0 464.44 464.25 212.7 464.25 0 0" style="fill:#B0BEC5;opacity:0.2"></polygon><polygon points="0 0 424.44 464.25 242.7 464.25 0 0" style="fill:#B0BEC5;opacity:0.2"></polygon></g></g><g id="freepik--character-1--inject-117"><path d="M268.89,463c-2.32.75-70.88-.11-73.38-1.75-1-.6,3.86-65.11,3.86-65.11l44.3.45L239,439.72s25.21,11.67,27.77,13.76S271.22,462.24,268.89,463Z" style="fill:#d3766a"></path><path d="M268.89,463c-2.32.75-70.88-.11-73.38-1.74-.44-.27.34-14.12,1.31-29h43l-.81,7.46s25.2,11.66,27.76,13.75S271.22,462.23,268.89,463Z" style="fill:#fff"></path><path d="M269.64,463.92c-2.44.8-71.67.15-74.31-1.57-1-.63.45-23.47.45-23.59h42.83l0,.76s26.61,12.2,29.32,14.39S272.09,463.13,269.64,463.92Z" style="fill:#B0BEC5"></path><path d="M269.46,461.2c-11.77-.4-59.25-.89-70.91-.39-.1,0-.1.06,0,.07,11.65.65,59.14.76,70.91.51C269.71,461.39,269.71,461.21,269.46,461.2Z" style="fill:#263238"></path><path d="M243.62,438.93c-4.62-.91-10.29-.25-13.86,3-.14.12,0,.32.19.27a65.26,65.26,0,0,1,13.64-2.7A.3.3,0,0,0,243.62,438.93Z" style="fill:#263238"></path><path d="M246.94,441c-4.62-.91-10.29-.25-13.86,3-.14.13,0,.32.19.28a65.37,65.37,0,0,1,13.65-2.71A.29.29,0,0,0,246.94,441Z" style="fill:#263238"></path><path d="M250.27,443c-4.63-.91-10.3-.25-13.87,3-.13.13,0,.32.2.27a65.13,65.13,0,0,1,13.64-2.7A.3.3,0,0,0,250.27,443Z" style="fill:#263238"></path><path d="M244.48,410.66h-47.7A23.77,23.77,0,0,1,195,398.93c1.91-22.87,8.73-71.65,8.45-73.14-.48-2.49-3.29-13.77-7-28.5-1.18-4.61-2.45-9.55-3.76-14.68-3.56-13.86-7.48-29-10.89-42.19-5.13-19.74-9.13-35.08-9.13-35.08H213s4.71,14.93,10.65,34.36c9.68,31.58,22.6,75.05,23.88,85.62,1.55,12.79,2.52,54,1.17,74A22.17,22.17,0,0,1,244.48,410.66Z" style="fill:#455a64"></path><path d="M242.27,402c-7.28-.15-5.19-.21-12.46-.28-3.56,0-26.95-.24-30.28.31-.07,0-.07.14,0,.15,3.33.55,26.72.35,30.28.31,7.27-.07,5.18-.13,12.46-.28A.11.11,0,0,0,242.27,402Z" style="fill:#263238"></path><path d="M180,210.82l7.41,26.11,7.23,26.16c2.41,8.73,4.74,17.47,7.06,26.22s4.61,17.5,6.74,26.3c.52,2.2,1,4.4,1.48,6.64.12.56.19,1.14.29,1.7a7.76,7.76,0,0,1,.05.95l-.06.85-.27,3.38-1,13.53-2.13,27-1.84,25.15,0,.29-.54-.33,1.56-25.17,2-27.06,1-13.54.25-3.38.06-.85c0-.26,0-.49,0-.74-.1-.54-.18-1.09-.3-1.64-.43-2.2-1-4.4-1.48-6.6-4.24-17.57-9-35-13.56-52.54Z" style="fill:#263238"></path><path d="M212.05,205.34c-2.8,21.71-13,57.78-16.86,87.31-9.12-35.78-22.59-87.31-22.59-87.31Z" style="fill:#263238"></path><path d="M114.62,462.63c2.34.73,59.93,1,62.42-.68,1-.62,1.3-10.33,1.38-22.07v-.37c0-2.42,5.58-43.09,5.58-43.09l-43.5.88-5,42.73,0,.72s-16.24,10.19-18.79,12.31S112.28,461.91,114.62,462.63Z" style="fill:#d3766a"></path><path d="M179.23,432.26c-.49,3.89-.81,6.67-.81,7.25v.37c-.07,11.74-.41,21.45-1.37,22.07-2.5,1.67-60.09,1.42-62.43.69s-.45-7.47,2.09-9.58,18.79-12.31,18.79-12.31l0-.73.91-7.76Z" style="fill:#fff"></path><path d="M111.78,463.92c2.44.8,64.38.15,67-1.57,1-.63-.45-23.47-.45-23.59H135.52l0,.76s-19.32,12.2-22,14.39S109.33,463.13,111.78,463.92Z" style="fill:#B0BEC5"></path><path d="M112,461.2c11.77-.4,52-.89,63.62-.39.1,0,.1.06,0,.07-11.65.65-51.85.76-63.62.51C111.72,461.39,111.72,461.21,112,461.2Z" style="fill:#263238"></path><path d="M133.39,440c4.53-1.26,10.24-1,14.05,1.94.15.11,0,.32-.17.28a65.47,65.47,0,0,0-13.81-1.63A.3.3,0,0,1,133.39,440Z" style="fill:#263238"></path><path d="M130.23,442.33c4.54-1.26,10.24-1.05,14.06,1.93.14.12,0,.33-.18.29a66,66,0,0,0-13.81-1.64A.3.3,0,0,1,130.23,442.33Z" style="fill:#263238"></path><path d="M127.08,444.63c4.54-1.26,10.24-1.05,14,1.93.15.12,0,.32-.17.29a64.83,64.83,0,0,0-13.81-1.64A.3.3,0,0,1,127.08,444.63Z" style="fill:#263238"></path><path d="M212.05,205.34s-6.13,37.36-6.55,38.56c0,0-2.27,1.08-6.39,3,0,0-10.63,117-10.63,151.5,0,5.8-4,12.09-4,12.09l-47.93.19s-3.53-7-3.35-13.06c1.45-48.5,26.58-192.26,26.58-192.26Z" style="fill:#455a64"></path><path d="M182.81,402c-7.32-.13-5.22-.19-12.54-.23-3.59,0-27.13-.13-30.48.44-.07,0-.07.14,0,.15,3.35.54,26.9.24,30.48.19,7.32-.11,5.22-.16,12.54-.34A.1.1,0,0,0,182.81,402Z" style="fill:#263238"></path><path d="M207.5,242.74a88.43,88.43,0,0,0-13.7,7.18.16.16,0,0,0,.14.28c4.62-2.25,9.34-4.41,13.84-6.91A.31.31,0,0,0,207.5,242.74Z" style="fill:#263238"></path><path d="M205.73,221.34c-.75,4.47-1.17,9-1.67,13.51-.12,1.08-.25,2.16-.37,3.25a6.26,6.26,0,0,1-.78,2.84c-1,1.51-2.71,2.21-4.29,2.9-.18.08-.1.37.1.31a10.55,10.55,0,0,0,4.55-2.41c1.44-1.52,1.39-3.83,1.62-5.78a125.26,125.26,0,0,0,1.05-14.6C205.94,221.25,205.75,221.22,205.73,221.34Z" style="fill:#263238"></path><path d="M200.3,222.71c-.16,3.22-.52,6.44-.79,9.65-.13,1.59-.24,3.18-.34,4.77s-.29,3.27-.23,4.88a.1.1,0,0,0,.19,0c.27-1.53.3-3.12.43-4.66s.24-3.26.33-4.89c.19-3.25.27-6.53.57-9.77C200.47,222.61,200.3,222.61,200.3,222.71Z" style="fill:#263238"></path><polygon points="198.14 251.66 195.57 273.59 192.89 295.5 187.38 339.31 179.68 397.6 186.36 339.18 192.11 295.4 195.07 273.53 198.14 251.66" style="fill:#263238"></polygon><path d="M215.47,160.82c5.74-2.37,34.95-15.21,38.79-24.33,3.39-8,4.79-35.45,4.24-43-.23-3.31-25.23-7.2-25.5-3.67-.57,7.57.56,35.22-.35,37.71s-15.28,15-23.44,23.24C201.31,158.73,200.86,166.83,215.47,160.82Z" style="fill:#d3766a"></path><path d="M261.81,81.54c.7,5.7-2.43,17.92-4.32,20.57s-22.85-2-24.27-5-2.29-22.41.79-27.39S261.09,75.63,261.81,81.54Z" style="fill:#d3766a"></path><path d="M230.81,78.34c1.88,2.39,3.62-1.19,3.62-1.19s-1.26,5.76,1.63,7.48,4.75-2.75,4.89-3.07c-.06.31-1.09,5.64,2,7.06s4.41-3.28,4.49-3.58c0,.3.49,4.37,3.08,4.92,4.45.94,3.56-9.48,6-12.19,0,0,5.09,3.69,5.26,3.77,0,0-.65-9.93-4.5-13.09a3.18,3.18,0,0,0-4-.09s.14-3.23-2.25-4.43c-1.23-.61-3.31.81-3.31.81a4,4,0,0,0-2.18-3.52c-1.75-.75-3.56.79-3.56.79s-1.15-2.49-3.18-2.67C234.74,59,226.79,73.21,230.81,78.34Z" style="fill:#d3766a"></path><path d="M241.7,62.21a0,0,0,1,0-.06-.05,28.28,28.28,0,0,0-7.32,15.17c0,.18.26.3.32.1A58.39,58.39,0,0,1,241.7,62.21Z" style="fill:#263238"></path><path d="M247.79,64.65c0-.05-.06-.11-.1-.06a26.57,26.57,0,0,0-7,17c0,.22.22.42.24.17C241.31,77.52,244.83,69,247.79,64.65Z" style="fill:#263238"></path><path d="M247.58,85.49c.27-6.19,2.49-11.67,5.58-17,0-.07-.06-.12-.11-.07-2.22,2.18-3.84,5.77-4.86,8.66a16.25,16.25,0,0,0-.82,8.37C247.39,85.59,247.58,85.62,247.58,85.49Z" style="fill:#263238"></path><path d="M234.43,77.15a19.33,19.33,0,0,0-.11,3.4,6.26,6.26,0,0,0,.91,3.12,2.06,2.06,0,0,0,1.21.84,3.08,3.08,0,0,0,1.51-.05A3.65,3.65,0,0,0,240,82.35l1-2.29-.13,2.5a10.42,10.42,0,0,0,.35,3.29A3.68,3.68,0,0,0,243,88.26a2.1,2.1,0,0,0,2.59-.46A6.24,6.24,0,0,0,246.94,85l.66-2.89.32,2.93a9.83,9.83,0,0,0,.57,2.38,4,4,0,0,0,1.32,1.86,1.89,1.89,0,0,0,2,.13,4.21,4.21,0,0,0,1.4-1.86,33.64,33.64,0,0,0,1.52-4.9c.22-.83.44-1.67.7-2.5a6.19,6.19,0,0,1,1.14-2.33,6.55,6.55,0,0,0-.91,2.39c-.2.84-.35,1.69-.51,2.54a28,28,0,0,1-1.28,5.08,4.9,4.9,0,0,1-1.61,2.28,2.68,2.68,0,0,1-2.93-.07,5,5,0,0,1-1.7-2.26,10.42,10.42,0,0,1-.67-2.65l1,0a7.37,7.37,0,0,1-1.57,3.39,3,3,0,0,1-1.8,1,3.37,3.37,0,0,1-2-.34,4.62,4.62,0,0,1-2.23-3,11.14,11.14,0,0,1-.32-3.63l.85.2a4.33,4.33,0,0,1-2.72,2.47,3.66,3.66,0,0,1-1.86,0,2.6,2.6,0,0,1-1.5-1.13,6.31,6.31,0,0,1-.76-3.42A15.52,15.52,0,0,1,234.43,77.15Z" style="fill:#263238"></path><path d="M232.49,93.83S220.24,72.76,230.82,72c3.15-.22,16.33,2.62,15.81,5.27-.67,3.44-6.39,3.28-10,2.61,0,0,5.18,6.58,1.67,11.55A6,6,0,0,1,232.49,93.83Z" style="fill:#d3766a"></path><path d="M230,72.13a12.8,12.8,0,0,1,3.71-.16,28.79,28.79,0,0,1,3.69.54,42.64,42.64,0,0,1,7.18,2.09,7,7,0,0,1,1.72,1,2.47,2.47,0,0,1,.72.87,1.84,1.84,0,0,1,.19.6,2,2,0,0,1,0,.61A3.17,3.17,0,0,1,246,79.5a5.87,5.87,0,0,1-1.82.91,11.38,11.38,0,0,1-3.83.38,25.84,25.84,0,0,1-3.74-.48l.42-.69a15,15,0,0,1,1.45,2.46,13.88,13.88,0,0,1,1,2.66,9.6,9.6,0,0,1,.25,2.82,7.18,7.18,0,0,1-.69,2.71,8.35,8.35,0,0,0,.39-2.71,9.67,9.67,0,0,0-.48-2.67,13.71,13.71,0,0,0-1.06-2.49,15.34,15.34,0,0,0-1.5-2.24l-.71-.85,1.12.16a27.54,27.54,0,0,0,3.61.34,11,11,0,0,0,3.5-.39c1.06-.33,2.1-1,2.27-1.94s-.94-1.51-2-2-2.25-.89-3.41-1.28-2.33-.76-3.52-1.07A23.4,23.4,0,0,0,230,72.13Z" style="fill:#263238"></path><path d="M221.09,137.26l10.64,19.37s-10.32,4.05-21,7.49-16.12-1-5-13.19C215,140.67,221.09,137.26,221.09,137.26Z" style="fill:#B0BEC5"></path><path d="M221.09,137.26l7.4,13.49,3.23,5.88s-10.3,4.05-21,7.49c-7,2.23-11.67,1.16-11.09-3.2.31-2.38,2.19-5.7,6.09-10C215,140.67,221.09,137.26,221.09,137.26Z" style="fill:#263238"></path><path d="M217,141.62a35,35,0,0,0,2,4c.7,1.33,1.43,2.64,2.16,4s1.47,2.65,2.24,4,1.65,2.63,2.47,4c.05.07.18,0,.14-.07-.66-1.35-1.28-2.71-2-4s-1.43-2.64-2.16-3.95-1.48-2.65-2.24-4a35.85,35.85,0,0,0-2.48-3.95C217.08,141.5,217,141.54,217,141.62Z" style="fill:#455a64"></path><path d="M228.49,150.75l3.23,5.88s-10.3,4.05-21,7.49c-7,2.23-11.67,1.16-11.09-3.2Z" style="opacity:0.1"></path><path d="M223.82,232.39l-69,.86s9.5-56.91,35.29-80.31c3.19-2.89,10.63-2.65,15.23,0C213.4,157.51,224,232.15,223.82,232.39Z" style="fill:#B0BEC5"></path><path d="M190.61,151.86s2.63,18.53,2.56,29.88-6.76,61-6.76,61H148.29s16.07-59.93,31-80.31C186.88,152,190.61,151.86,190.61,151.86Z" style="fill:#263238"></path><path d="M205.32,152.91s4.81,19.31,5.81,23.17,9,66.12,9,66.12h7.38S215.87,159.93,205.32,152.91Z" style="fill:#263238"></path><path d="M179.38,159.87c-17.68,20.08-27.88,47-24.58,52.32,5.13,8.29,23.93,18.91,40.69,24.44,3.35,1.1,19.8-25.37,16.2-26.49-7.16-2.22-29.57-13.71-30-13.75-1-.08,3.62-19.58,7.06-31C193.52,149.57,186.73,151.52,179.38,159.87Z" style="fill:#d3766a"></path><path d="M201.7,208.6s12.28-2.67,18.82-3.11c8.75-.59,15.37.89,18.56,2.38,6.66,3.11,22.39,8.95,19.59,13.57-2.53,4.19-17.94-2.63-17.94-2.63s16.1,11.09,12.13,15.57-18.92-11.65-18.92-11.65,16.28,11.76,11.45,15.74c-3.64,3-18-10.85-18-10.85s13.93,10.21,10.31,13.46c-4,3.59-18.06-8.37-18.06-8.37-10.59,6.71-18.59,5.41-24,3.94C194.28,236.29,201.7,208.6,201.7,208.6Z" style="fill:#d3766a"></path><path d="M235.41,214.62c1.94,1.23,3.91,2.47,5.73,3.87s3.6,2.87,5.28,4.44a39.71,39.71,0,0,1,6,6.71c-3.38-4.14-9.83-9.26-11.65-10.66s-3.57-2.9-5.39-4.3C235.31,214.65,235.36,214.59,235.41,214.62Z" style="fill:#263238"></path><path d="M230.23,221.1c2.4,1.69,4.85,3.27,7.19,5.06s4.37,3.68,6.56,5.61c.17.15,0,.19-.14,0-2.27-1.85-4.51-3.38-6.8-5.2s-4.51-3.73-6.86-5.46C230.14,221.13,230.19,221.08,230.23,221.1Z" style="fill:#263238"></path><path d="M224.77,225.87a65.82,65.82,0,0,1,10.41,8.57c.16.16,0,.19-.19.05-3.41-2.92-6.06-5.23-10.3-8.49C224.63,226,224.69,225.82,224.77,225.87Z" style="fill:#263238"></path><path d="M160.71,185.46l24.41-.26s3.47-11.51,5.55-22.59-1.61-14.51-12.68-2.24C168.53,170.85,160.71,185.46,160.71,185.46Z" style="fill:#263238"></path><path d="M184.58,179.83a37,37,0,0,0-4.59-.17c-1.53,0-3.06,0-4.59,0s-3.09.06-4.63.12-3.16.22-4.75.33c-.09,0-.1.16,0,.16,1.53.05,3,.14,4.59.15s3.06,0,4.59,0,3.08-.06,4.63-.12a37.64,37.64,0,0,0,4.74-.34A.07.07,0,0,0,184.58,179.83Z" style="fill:#455a64"></path><path d="M183.81,185.21l1.31-.13-.12.08a134.11,134.11,0,0,1,4-14.57c-.14,1.26-.36,2.5-.62,3.74a72.69,72.69,0,0,1-3.16,11c-.46,0-.93-.07-1.39-.12Z" style="fill:#455a64"></path><path d="M190.1,173.08a10.21,10.21,0,0,1-2.95,4.82,34.93,34.93,0,0,1,2.95-4.82Z" style="fill:#455a64"></path><path d="M188.37,135.56s-9.41,12.12-7.5,14,16.95-2.54,20-5.51,8.21-14.36,8.21-14.36Z" style="fill:#37474f"></path><path d="M206.07,130.77c1.13,3.9,4.83,6.25,8.25,5.25s5.28-5,4.14-8.87-4.83-6.25-8.26-5.26S204.93,126.87,206.07,130.77Z" style="fill:#B0BEC5"></path><path d="M204.13,131.6c1.26,4.34,5.38,7,9.19,5.85s5.87-5.53,4.6-9.87-5.38-7-9.19-5.85S202.86,127.26,204.13,131.6Z" style="fill:#c7c7c7"></path><path d="M203.66,163.29c-3.73.82-10-4.95-12.48-9.58-.17-.32.36-3.64.81-7.7.27-2.47.51-5.23.54-7.75,0-.52,15.81,4.07,15.81,4.07a40,40,0,0,0-1.67,9.69,5.64,5.64,0,0,0,.09,1,.9.9,0,0,1,0,.18C207.08,155.2,207.27,162.48,203.66,163.29Z" style="fill:#d3766a"></path><path d="M205.15,153.29a9.37,9.37,0,0,0,1.63-.07.88.88,0,0,0,0-.17,5.67,5.67,0,0,1-.09-1,40.24,40.24,0,0,1,1.66-9.68s-12.82-3.73-15.36-4.09C193.42,141.17,195.81,153,205.15,153.29Z" style="fill:#263238"></path><path d="M188.07,123.35c-.68,5.84,5.13,21.29,9.71,24.14,6.64,4.14,16.07,2.94,19.22-4.71,3.05-7.42-4.88-27.42-9.86-29.87C199.8,109.31,189.09,114.73,188.07,123.35Z" style="fill:#d3766a"></path><path d="M202,129.12a13,13,0,0,0,1.17-.9c.45-.35.84-.58,1-1.14a.77.77,0,0,0-.4-.84,1.86,1.86,0,0,0-1.86.41,2.74,2.74,0,0,0-1.15,1.63A.81.81,0,0,0,202,129.12Z" style="fill:#263238"></path><path d="M213,125.16c-.49.07-1,.06-1.47.09a2.37,2.37,0,0,1-1.51-.19.76.76,0,0,1-.25-.9,1.89,1.89,0,0,1,1.67-.92,2.74,2.74,0,0,1,1.93.48A.81.81,0,0,1,213,125.16Z" style="fill:#263238"></path><path d="M207.38,140.74c.34.16.7.42,1.09.33a2.91,2.91,0,0,0,1.05-.64s.08,0,.07,0a1.48,1.48,0,0,1-1.16,1,1.17,1.17,0,0,1-1.13-.66C207.26,140.76,207.33,140.72,207.38,140.74Z" style="fill:#263238"></path><path d="M207.46,137.21a3.77,3.77,0,0,0,2.92.82,5.09,5.09,0,0,0,1.32-.37,1,1,0,0,0,.24-.11,1.5,1.5,0,0,0,.22-.11.28.28,0,0,0,.13-.3h0a.54.54,0,0,0,0-.11h0l0-.1c-.24-.82-.73-2-.73-2,.35.05,2.09.24,1.92-.18a56.86,56.86,0,0,0-5-10.43.11.11,0,0,0-.19.09c1.18,3.36,2.94,6.5,4.18,9.87a6.4,6.4,0,0,0-1.87,0c-.11.07,1,2.32,1.05,2.7a.1.1,0,0,1,0,0,5.22,5.22,0,0,1-4.1.06C207.43,137.05,207.37,137.15,207.46,137.21Z" style="fill:#263238"></path><path d="M211.08,137.41a4.45,4.45,0,0,1-1.27,1.88,2.07,2.07,0,0,1-1.15.46c-.91.05-1.19-.72-1.25-1.43a4.89,4.89,0,0,1,.05-1.14A5.82,5.82,0,0,0,211.08,137.41Z" style="fill:#263238"></path><path d="M209.81,139.29a2.07,2.07,0,0,1-1.15.46c-.91.05-1.19-.72-1.25-1.43A2.1,2.1,0,0,1,209.81,139.29Z" style="fill:#ff98b9"></path><path d="M203.2,132.68a2.42,2.42,0,0,1-.25-1.44,1.17,1.17,0,0,1,1.15-1,1.16,1.16,0,0,1,.78.32,2.12,2.12,0,0,1,.46.63,3,3,0,0,1,.29,1.42,5.5,5.5,0,0,0-.61-1.24c-.25-.36-.57-.67-.92-.66a.85.85,0,0,0-.8.66A4,4,0,0,0,203.2,132.68Z" style="fill:#263238"></path><path d="M214.22,128.87a2.46,2.46,0,0,0-.66-1.3,1.36,1.36,0,0,0-.74-.36,1.19,1.19,0,0,0-.81.23,1.16,1.16,0,0,0-.43.73,2,2,0,0,0,0,.77,3,3,0,0,0,.62,1.31,6,6,0,0,1-.25-1.35,1.27,1.27,0,0,1,.33-1.09.86.86,0,0,1,1,0A4.24,4.24,0,0,1,214.22,128.87Z" style="fill:#263238"></path><path d="M217.24,133.76a0,0,0,0,0,0,0c.71,4,.5,8-1.8,11.48a8.76,8.76,0,0,1-2.13,2.29s0,.09,0,.06a11.39,11.39,0,0,0,2.09-1.83,10.34,10.34,0,0,0,1.49-2.38,12.47,12.47,0,0,0,1.08-6.08A18.08,18.08,0,0,0,217.24,133.76Z" style="fill:#263238"></path><path d="M213.05,120.61c-.2-.48-.41-1-.64-1.41a14.85,14.85,0,0,0-1.47-2.57s-.05,0,0,0a28.83,28.83,0,0,0,1.26,2.7c.44.9.93,1.78,1.35,2.69a0,0,0,1,0,.07,0C213.43,121.59,213.25,121.07,213.05,120.61Z" style="fill:#263238"></path><path d="M192.35,140.66c2.76-1.94.78-12.75.78-12.75s1.47,4.37,2.25,4,2.09-7.46,1-11.84a35.21,35.21,0,0,0,9.07,1.11c4.29-.18,8.25-.57,8-1.23-.67-2-4.45-6.85-7.74-7.75-3.8-1-8.37-1.63-13.87,3S186,123.53,186.18,127,191.33,141.37,192.35,140.66Z" style="fill:#263238"></path><path d="M203.93,111c-6.34-1.3-18.06,3.31-17.93,13.64a29.5,29.5,0,0,0,3.43,12.69s5.33-8.86,7.79-11c6.24-5.38,16.15-7.27,16.15-7.27S209.63,112.2,203.93,111Zm-6.27,12.44c-.5-1.63-.64-4.21,2.72-5.92a4.38,4.38,0,0,1,5.93,1.58A29.45,29.45,0,0,0,197.66,123.47Z" style="fill:#455a64"></path><path d="M195.23,135.69s-4.64-4.42-6.72-2.66,2.14,8.67,5.09,9.14a2.84,2.84,0,0,0,3.43-2.26Z" style="fill:#d3766a"></path><path d="M189.77,135a0,0,0,0,0,0,.08c2.08.39,3.45,2,4.54,3.67a1.57,1.57,0,0,0-2.39.05s0,.11.07.09a1.74,1.74,0,0,1,2,.22,8.1,8.1,0,0,1,1.21,1.34c.13.16.42,0,.31-.18l0-.05C195.05,137.74,192.45,134.7,189.77,135Z" style="fill:#263238"></path><path d="M188.19,133.73s-3.43-8.2-2.55-13.67c1-6.09,9.35-11,14-9.33,0,0-7.11-.6-10.56,8.56-1.45,3.86,2,13.71,2,13.71Z" style="fill:#c7c7c7"></path><path d="M197.5,135.29c1.5,4.27-.31,8.79-4.05,10.11s-8-1.07-9.5-5.33.31-8.79,4.05-10.11S196,131,197.5,135.29Z" style="fill:#c7c7c7"></path><ellipse cx="189.35" cy="137.89" rx="6.46" ry="7.36" transform="translate(-35.08 70.8) rotate(-19.42)" style="fill:#B0BEC5"></ellipse><rect x="108.54" y="276.89" width="13.13" height="189.3" style="fill:#c7c7c7"></rect><rect x="274.9" y="276.89" width="13.13" height="189.3" style="fill:#c7c7c7"></rect><rect x="88.76" y="265.31" width="219.05" height="11.58" style="fill:#B0BEC5"></rect><rect x="88.76" y="271.67" width="219.05" height="5.21" style="opacity:0.1"></rect><rect x="93.42" y="258.32" width="209.74" height="6.97" transform="translate(396.57 523.62) rotate(180)" style="fill:#263238"></rect><rect x="90.21" y="246.77" width="216.15" height="11.55" transform="translate(396.57 505.09) rotate(180)" style="fill:#37474f"></rect><polygon points="101.26 241.15 292.88 241.15 306.36 246.77 90.21 246.77 101.26 241.15" style="fill:#455a64"></polygon><rect x="100.51" y="249.36" width="59.75" height="17.21" transform="translate(260.77 515.93) rotate(180)" style="fill:#455a64"></rect><path d="M104.27,255a2.12,2.12,0,1,0,2.12-2.18A2.15,2.15,0,0,0,104.27,255Z" style="fill:#c7c7c7"></path><path d="M105.37,255a1,1,0,1,0,1-1A1,1,0,0,0,105.37,255Z" style="fill:#263238"></path><path d="M104.27,260.74a2.12,2.12,0,1,0,2.12-2.17A2.14,2.14,0,0,0,104.27,260.74Z" style="fill:#ebebeb"></path><path d="M105.37,260.74a1,1,0,1,0,1-1A1,1,0,0,0,105.37,260.74Z" style="fill:#263238"></path><path d="M110.34,255a2.12,2.12,0,1,0,2.12-2.18A2.15,2.15,0,0,0,110.34,255Z" style="fill:#ebebeb"></path><path d="M111.44,255a1,1,0,1,0,1-1A1,1,0,0,0,111.44,255Z" style="fill:#263238"></path><path d="M110.34,260.74a2.12,2.12,0,1,0,2.12-2.17A2.14,2.14,0,0,0,110.34,260.74Z" style="fill:#B0BEC5"></path><ellipse cx="112.46" cy="260.74" rx="1.01" ry="1.04" style="fill:#263238"></ellipse><path d="M116.41,255a2.12,2.12,0,1,0,2.11-2.18A2.15,2.15,0,0,0,116.41,255Z" style="fill:#c7c7c7"></path><path d="M117.51,255a1,1,0,1,0,1-1A1,1,0,0,0,117.51,255Z" style="fill:#263238"></path><path d="M116.41,260.74a2.12,2.12,0,1,0,2.11-2.17A2.14,2.14,0,0,0,116.41,260.74Z" style="fill:#ebebeb"></path><path d="M117.51,260.74a1,1,0,1,0,1-1A1,1,0,0,0,117.51,260.74Z" style="fill:#263238"></path><path d="M125.23,255a2.12,2.12,0,1,0,2.12-2.18A2.15,2.15,0,0,0,125.23,255Z" style="fill:#B0BEC5"></path><path d="M126.34,255a1,1,0,1,0,2,0,1,1,0,1,0-2,0Z" style="fill:#263238"></path><path d="M125.23,260.74a2.12,2.12,0,1,0,2.12-2.17A2.14,2.14,0,0,0,125.23,260.74Z" style="fill:#ebebeb"></path><ellipse cx="127.35" cy="260.74" rx="1.01" ry="1.04" style="fill:#263238"></ellipse><path d="M131.3,255a2.12,2.12,0,1,0,2.12-2.18A2.15,2.15,0,0,0,131.3,255Z" style="fill:#B0BEC5"></path><path d="M132.41,255a1,1,0,1,0,2,0,1,1,0,1,0-2,0Z" style="fill:#263238"></path><path d="M131.3,260.74a2.12,2.12,0,1,0,2.12-2.17A2.14,2.14,0,0,0,131.3,260.74Z" style="fill:#ebebeb"></path><path d="M132.41,260.74a1,1,0,1,0,2,0,1,1,0,1,0-2,0Z" style="fill:#263238"></path><rect x="143.83" y="252.55" width="12.76" height="1.45" style="fill:#263238"></rect><rect x="143.83" y="255.76" width="12.76" height="1.45" style="fill:#263238"></rect><rect x="143.83" y="258.97" width="12.76" height="1.45" style="fill:#263238"></rect><rect x="185.92" y="249.36" width="24.73" height="17.21" transform="translate(396.57 515.93) rotate(180)" style="fill:#455a64"></rect><path d="M190.1,255a2.12,2.12,0,1,0,2.12-2.18A2.15,2.15,0,0,0,190.1,255Z" style="fill:#c7c7c7"></path><path d="M191.2,255a1,1,0,1,0,1-1A1,1,0,0,0,191.2,255Z" style="fill:#263238"></path><path d="M190.1,260.74a2.12,2.12,0,1,0,2.12-2.17A2.14,2.14,0,0,0,190.1,260.74Z" style="fill:#ebebeb"></path><path d="M191.2,260.74a1,1,0,1,0,1-1A1,1,0,0,0,191.2,260.74Z" style="fill:#263238"></path><path d="M196.17,255a2.12,2.12,0,1,0,2.12-2.18A2.15,2.15,0,0,0,196.17,255Z" style="fill:#ebebeb"></path><path d="M197.27,255a1,1,0,1,0,1-1A1,1,0,0,0,197.27,255Z" style="fill:#263238"></path><path d="M196.17,260.74a2.12,2.12,0,1,0,2.12-2.17A2.14,2.14,0,0,0,196.17,260.74Z" style="fill:#B0BEC5"></path><ellipse cx="198.29" cy="260.74" rx="1.01" ry="1.04" style="fill:#263238"></ellipse><path d="M202.24,255a2.12,2.12,0,1,0,2.11-2.18A2.15,2.15,0,0,0,202.24,255Z" style="fill:#c7c7c7"></path><path d="M203.34,255a1,1,0,1,0,1-1A1,1,0,0,0,203.34,255Z" style="fill:#263238"></path><path d="M202.24,260.74a2.12,2.12,0,1,0,2.11-2.17A2.14,2.14,0,0,0,202.24,260.74Z" style="fill:#ebebeb"></path><path d="M203.34,260.74a1,1,0,1,0,1-1A1,1,0,0,0,203.34,260.74Z" style="fill:#263238"></path><polygon points="232.51 243.91 292.25 243.91 289.34 240.53 235.42 240.53 232.51 243.91" style="fill:#263238"></polygon><ellipse cx="262.38" cy="243.91" rx="29.87" ry="0.92" style="fill:#263238"></ellipse><path d="M235.43,240.53c0-.51,12.07-.92,26.95-.92s27,.41,27,.92-12.07.92-27,.92S235.43,241,235.43,240.53Z" style="fill:#37474f"></path><polygon points="104.32 243.91 164.06 243.91 161.15 240.53 107.23 240.53 104.32 243.91" style="fill:#263238"></polygon><ellipse cx="134.19" cy="243.91" rx="29.87" ry="0.92" style="fill:#263238"></ellipse><path d="M107.23,240.53c0-.51,12.07-.92,27-.92s27,.41,27,.92-12.07.92-27,.92S107.23,241,107.23,240.53Z" style="fill:#37474f"></path><polygon points="206.22 241.56 209.33 241.56 209.18 238.14 206.37 238.14 206.22 241.56" style="fill:#263238"></polygon><ellipse cx="207.78" cy="241.56" rx="1.56" ry="0.5" style="fill:#263238"></ellipse><path d="M206.37,238.14c0-.15.63-.27,1.41-.27s1.4.12,1.4.27-.63.26-1.4.26S206.37,238.28,206.37,238.14Z" style="fill:#37474f"></path><polygon points="199.89 241.56 203.01 241.56 202.86 238.14 200.04 238.14 199.89 241.56" style="fill:#263238"></polygon><ellipse cx="201.45" cy="241.56" rx="1.56" ry="0.5" style="fill:#263238"></ellipse><ellipse cx="201.45" cy="238.14" rx="1.41" ry="0.26" style="fill:#37474f"></ellipse><polygon points="193.56 241.56 196.68 241.56 196.53 238.14 193.71 238.14 193.56 241.56" style="fill:#263238"></polygon><path d="M193.56,241.56c0-.27.7-.5,1.56-.5s1.56.23,1.56.5-.7.5-1.56.5S193.56,241.84,193.56,241.56Z" style="fill:#263238"></path><path d="M193.71,238.14c0-.15.63-.27,1.41-.27s1.41.12,1.41.27-.63.26-1.41.26S193.71,238.28,193.71,238.14Z" style="fill:#37474f"></path><polygon points="187.24 241.56 190.35 241.56 190.2 238.14 187.39 238.14 187.24 241.56" style="fill:#263238"></polygon><ellipse cx="188.8" cy="241.56" rx="1.56" ry="0.5" style="fill:#263238"></ellipse><ellipse cx="188.8" cy="238.14" rx="1.41" ry="0.26" style="fill:#37474f"></ellipse><polygon points="206.78 243.78 210.12 243.78 209.95 240.11 206.94 240.11 206.78 243.78" style="fill:#263238"></polygon><path d="M206.78,243.78c0-.3.74-.54,1.67-.54s1.67.24,1.67.54-.75.54-1.67.54S206.78,244.08,206.78,243.78Z" style="fill:#263238"></path><path d="M206.94,240.11c0-.15.67-.28,1.51-.28s1.5.13,1.5.28-.67.29-1.5.29S206.94,240.27,206.94,240.11Z" style="fill:#37474f"></path><polygon points="200 243.78 203.34 243.78 203.18 240.11 200.16 240.11 200 243.78" style="fill:#263238"></polygon><ellipse cx="201.67" cy="243.78" rx="1.67" ry="0.54" style="fill:#263238"></ellipse><ellipse cx="201.67" cy="240.11" rx="1.51" ry="0.28" style="fill:#37474f"></ellipse><polygon points="193.23 243.78 196.57 243.78 196.41 240.11 193.39 240.11 193.23 243.78" style="fill:#263238"></polygon><path d="M193.23,243.78c0-.3.75-.54,1.67-.54s1.67.24,1.67.54-.75.54-1.67.54S193.23,244.08,193.23,243.78Z" style="fill:#263238"></path><ellipse cx="194.9" cy="240.11" rx="1.51" ry="0.28" style="fill:#37474f"></ellipse><polygon points="186.45 243.78 189.79 243.78 189.63 240.11 186.62 240.11 186.45 243.78" style="fill:#263238"></polygon><path d="M186.45,243.78c0-.3.75-.54,1.67-.54s1.67.24,1.67.54-.74.54-1.67.54S186.45,244.08,186.45,243.78Z" style="fill:#263238"></path><ellipse cx="188.12" cy="240.11" rx="1.51" ry="0.28" style="fill:#37474f"></ellipse><polygon points="222.31 241.49 227.12 241.49 226.88 238.06 222.55 238.06 222.31 241.49" style="fill:#263238"></polygon><path d="M222.31,241.49c0-.28,1.08-.5,2.4-.5s2.41.22,2.41.5-1.08.5-2.41.5S222.31,241.77,222.31,241.49Z" style="fill:#263238"></path><path d="M222.55,238.06a9.14,9.14,0,0,1,4.33,0,8.82,8.82,0,0,1-4.33,0Z" style="fill:#37474f"></path><polygon points="215.38 241.49 220.18 241.49 219.95 238.06 215.61 238.06 215.38 241.49" style="fill:#263238"></polygon><path d="M215.38,241.49c0-.28,1.07-.5,2.4-.5s2.4.22,2.4.5-1.07.5-2.4.5S215.38,241.77,215.38,241.49Z" style="fill:#263238"></path><path d="M215.61,238.06a9.19,9.19,0,0,1,4.34,0,8.86,8.86,0,0,1-4.34,0Z" style="fill:#37474f"></path><polygon points="222.52 243.79 227.53 243.79 227.29 240.22 222.76 240.22 222.52 243.79" style="fill:#263238"></polygon><path d="M222.52,243.79c0-.28,1.12-.52,2.51-.52s2.5.24,2.5.52-1.12.53-2.5.53S222.52,244.08,222.52,243.79Z" style="fill:#263238"></path><path d="M222.77,240.22a9.59,9.59,0,0,1,4.52,0c0,.16-1,.28-2.26.28S222.77,240.38,222.77,240.22Z" style="fill:#37474f"></path><polygon points="215.28 243.79 220.28 243.79 220.04 240.22 215.52 240.22 215.28 243.79" style="fill:#263238"></polygon><path d="M215.28,243.79c0-.28,1.12-.52,2.5-.52s2.5.24,2.5.52-1.12.53-2.5.53S215.28,244.08,215.28,243.79Z" style="fill:#263238"></path><path d="M215.52,240.22a9.59,9.59,0,0,1,4.52,0c0,.16-1,.28-2.26.28S215.52,240.38,215.52,240.22Z" style="fill:#37474f"></path><rect x="178.76" y="241.26" width="0.39" height="3.5" transform="translate(357.91 486.01) rotate(180)" style="fill:#263238"></rect><rect x="172.16" y="241.26" width="0.39" height="3.5" transform="translate(344.7 486.01) rotate(180)" style="fill:#263238"></rect><polygon points="176.48 242.63 181.43 242.63 181.73 244.32 176.19 244.32 176.48 242.63" style="fill:#263238"></polygon><polygon points="176.78 242.35 181.14 242.35 181.43 242.63 176.48 242.63 176.78 242.35" style="fill:#37474f"></polygon><polygon points="169.88 241.31 174.83 241.31 175.12 242.99 169.58 242.99 169.88 241.31" style="fill:#263238"></polygon><polygon points="170.17 241.03 174.53 241.03 174.83 241.31 169.88 241.31 170.17 241.03" style="fill:#37474f"></polygon><rect x="290.31" y="249.83" width="10.06" height="5.43" transform="translate(590.67 505.09) rotate(180)" style="fill:#263238"></rect><rect x="276.21" y="249.83" width="10.06" height="5.43" transform="translate(562.48 505.09) rotate(180)" style="fill:#263238"></rect><rect x="213.06" y="248.01" width="56.77" height="9.06" transform="translate(482.88 505.09) rotate(180)" style="fill:#455a64"></rect><rect x="215.41" y="250.04" width="52.06" height="0.89" transform="translate(482.88 500.96) rotate(180)" style="fill:#263238"></rect><rect x="215.41" y="252.1" width="52.06" height="0.89" transform="translate(482.88 505.09) rotate(180)" style="fill:#263238"></rect><rect x="215.41" y="254.17" width="52.06" height="0.89" transform="translate(482.88 509.22) rotate(180)" style="fill:#263238"></rect><path d="M117.71,259.77a22.68,22.68,0,0,1-11.91-3.92l1.17-1.63s5,3.55,10.74,3.55,14.51-3.19,15.17-3.58l1.1,1.67C133.23,256.37,124.08,259.77,117.71,259.77Z" style="fill:#263238"></path><path d="M149,259.77A140.19,140.19,0,0,1,117.53,256l.51-1.93a138.74,138.74,0,0,0,30.91,3.7c16.61,0,41.14-3.24,43-3.71l.47,1.95C190.54,256.48,165.7,259.77,149,259.77Z" style="fill:#263238"></path><path d="M148.12,268.74a105.84,105.84,0,0,1-36.53-7.08l.78-1.84a103.7,103.7,0,0,0,35.75,6.92c19.22,0,47.62-6.07,49.8-6.93l.73,1.86C196.43,262.55,167.57,268.74,148.12,268.74Z" style="fill:#263238"></path><path d="M158,265.67a86.41,86.41,0,0,1-25.32-4l.65-1.9A85.78,85.78,0,0,0,158,263.67c13.75,0,33.33-3.54,34.39-3.88l.61,1.9C191.49,262.19,171.5,265.67,158,265.67Z" style="fill:#263238"></path></g><g id="freepik--Speakers--inject-117"><rect x="63.31" y="294.52" width="102.52" height="169.62" style="fill:#37474f"></rect><rect x="63.31" y="294.52" width="29.1" height="169.62" style="opacity:0.30000000000000004"></rect><ellipse cx="131.13" cy="419.63" rx="25.13" ry="29.67" style="fill:#455a64"></ellipse><ellipse cx="131.13" cy="419.63" rx="19.37" ry="22.87" style="fill:#263238"></ellipse><ellipse cx="131.13" cy="419.63" rx="13.75" ry="16.23" style="fill:#455a64"></ellipse><ellipse cx="131.13" cy="419.63" rx="10.97" ry="12.95" style="fill:#263238"></ellipse><ellipse cx="131.13" cy="347.43" rx="25.13" ry="29.67" style="fill:#455a64"></ellipse><ellipse cx="131.13" cy="347.43" rx="19.37" ry="22.87" style="fill:#263238"></ellipse><ellipse cx="131.13" cy="347.43" rx="13.75" ry="16.23" style="fill:#455a64"></ellipse><ellipse cx="131.13" cy="347.43" rx="10.97" ry="12.95" style="fill:#263238"></ellipse><rect x="119.76" y="306.1" width="22.74" height="3.81" style="fill:#263238"></rect><rect x="230.2" y="294.52" width="102.52" height="169.62" style="fill:#37474f"></rect><rect x="230.2" y="294.52" width="29.1" height="169.62" style="opacity:0.30000000000000004"></rect><ellipse cx="298.02" cy="419.63" rx="25.13" ry="29.67" style="fill:#455a64"></ellipse><ellipse cx="298.02" cy="419.63" rx="19.37" ry="22.87" style="fill:#263238"></ellipse><ellipse cx="298.02" cy="419.63" rx="13.75" ry="16.23" style="fill:#455a64"></ellipse><ellipse cx="298.02" cy="419.63" rx="10.97" ry="12.95" style="fill:#263238"></ellipse><ellipse cx="298.02" cy="347.43" rx="25.13" ry="29.67" style="fill:#455a64"></ellipse><ellipse cx="298.02" cy="347.43" rx="19.37" ry="22.87" style="fill:#263238"></ellipse><ellipse cx="298.02" cy="347.43" rx="13.75" ry="16.23" style="fill:#455a64"></ellipse><ellipse cx="298.02" cy="347.43" rx="10.97" ry="12.95" style="fill:#263238"></ellipse><rect x="286.65" y="306.1" width="22.74" height="3.81" style="fill:#263238"></rect></g><g id="freepik--character-2--inject-117"><path d="M443.55,381.86l-31.36,25.85S345.38,334,342,311.75c-2.28-15.16,22.05-104.62,22.05-104.62l37.81.36s-16.59,89.9-15.75,93.31C387,304.47,443.55,381.86,443.55,381.86Z" style="fill:#ffc4c0"></path><path d="M443.55,381.86l-31.36,25.85s-.69-.76-1.93-2.16c-6-6.69-24.74-27.92-41.09-49.12-13.73-17.79-25.78-35.56-27.15-44.68-2.28-15.16,22.06-104.62,22.06-104.62l5.09.05,32.72.31s-16.59,89.9-15.76,93.31c.47,1.92,16,23.84,30.85,44.4C430.59,364.11,443.55,381.86,443.55,381.86Z" style="fill:#f7a9a0"></path><path d="M419.08,463.76c1,0,17-.2,24.71,0,4.85.14,24.21-58.18,24.31-61.21s-12.52-6.62-13.15-7.47c-10.06-13.52-25.12-30-25.12-30l-31.89,25.08,26.5,32.7s4.58,20.73,2.09,24.5c-1.29,2-4.95,6.61-6.74,9.07S416.07,463.68,419.08,463.76Z" style="fill:#f7a9a0"></path><path d="M468.1,402.55c-.1,3-19.46,61.35-24.31,61.21-7.68-.21-23.67,0-24.71,0-3-.07-1.13-4.8.72-7.35s5.44-7.1,6.74-9.06c-3.08,6.32.07,18.2,15-9.88C455.67,410.86,455,395.08,455,395.08,455.58,395.93,468.2,399.56,468.1,402.55Z" style="fill:#263238"></path><path d="M426.54,447.35s3.79-4.44,12.53-5.44" style="fill:#263238"></path><path d="M427.22,444.06s2.32-.75,7.38,5" style="fill:#263238"></path><path d="M417,345.2l-6.72,60.35c-6-6.69-24.74-27.92-41.09-49.12V207.18l32.72.31s-16.59,89.9-15.76,93.31C386.6,302.72,402.17,324.64,417,345.2Z" style="opacity:0.1"></path><path d="M341.47,464c1,.35,20-.06,34.5-.06,4.86,0,35.58-20.59,37.27-23.09s-3.91-13.05-3.92-14.11c-.15-17.21,0-37.78,0-37.78l-39.52-.56L368,429.57s-3.84,15.41-7.79,17.58c-6.67,3.65-15,6.79-16.42,7.86C341.31,456.93,339.27,463.27,341.47,464Z" style="fill:#f7a9a0"></path><path d="M413.24,440.88C411.55,443.38,380.82,464,376,464c-14.5,0-33.51.41-34.5.06-2.2-.76-.17-7.09,2.31-9,1.13-.87,6.93-3.12,12.65-5.92-4,2.38-10.12,7.23,8.12,3s44.77-25.35,44.77-25.35C409.33,427.83,414.92,438.41,413.24,440.88Z" style="fill:#263238"></path><path d="M361,446.64c.17,0,.26-.09.27-.14Z" style="fill:#B0BEC5"></path><path d="M356.2,449.17s5.54-1.88,13.72,1.34" style="fill:#263238"></path><path d="M360,447.16s2.23.34,3.26,5.26" style="fill:#263238"></path><path d="M367.74,207.13s3.66,27.1,10.14,38a14.35,14.35,0,0,1,3.68.91s-6.91,68.42-9.2,91.57c-2.21,22.34-3.69,78.42-3.69,78.42l39.46,1.18s3.39-75.33,3.76-81.37c.58-9.7,12.3-90.23,12.3-94.87,0-9.7-9.05-33.42-9.05-33.42Z" style="fill:#f7a9a0"></path><path d="M364.08,207.13s-15.8,53.54-22.21,84.51H420s7.71-43.83,6-54-10.91-30-10.91-30l-24.36-4.33Z" style="fill:#455a64"></path><path d="M353.75,152.7a.49.49,0,0,0,.35.54l2,.3c2.18-4.5,4.41-8,3.79-6.64a23.9,23.9,0,0,0-1.84,6.92c.87.13,2.9.4,3.92.53,2.24-8.06,4.74-14,4.46-12.1-1.14,7.52-.89,10-.59,12.63,9.47,1.24,21.9,2.74,30.91,3.63,1.43-4.44,2.75-9.27,2.88-8.91,1,2.66,1,6.4.82,9.26,2.87.27,5.17.42,6.58.45,0,0,1-3.75,1.19-5a26.37,26.37,0,0,0-.2-9.62,47,47,0,0,0-3.43-9.21l0-.07v0a27.37,27.37,0,0,1-1.9-6.11.09.09,0,0,1,0-.05,26,26,0,0,1-.36-4.6c.05-5.63-2.69-10.74-7.82-12.66-9.15-10.19-21.08-5.21-24.08,2.12v0c-1.29,3.15-2.55,7.27-3.67,10.44a0,0,0,0,1,0,0,0,0,0,0,1,0,0h0a31.48,31.48,0,0,1-1.49,3.65C362.18,133.88,356.17,136.71,353.75,152.7Z" style="fill:#263238"></path><path d="M396.61,113.71a10.61,10.61,0,0,1,5.38,9,27.11,27.11,0,0,0,.8,7.07,24.63,24.63,0,0,0,3.45,6.46c2.19,3.22,3.63,6.37,3.67,10.41a30.92,30.92,0,0,1-2.25,12.57s0,0,0,0a32.6,32.6,0,0,0,1.57-13.17c-.38-4.49-2.65-7.49-4.93-11.08a18.44,18.44,0,0,1-3-9.36c-.09-2,.12-4.14-.53-6.11-.78-2.35-2.59-4-4.4-5.4A.24.24,0,0,1,396.61,113.71Z" style="fill:#263238"></path><path d="M358.87,134c2.7-3,5.46-5.45,7.22-9.26,1.6-3.48,2.66-7.2,4.29-10.67,0-.06.11,0,.08,0-2.57,6.19-3.51,12.57-8.06,17.57-2.48,2.72-4.94,5.22-6.7,8.58a31.11,31.11,0,0,0-3.29,11.3.1.1,0,1,1-.19,0A25.85,25.85,0,0,1,358.87,134Z" style="fill:#263238"></path><path d="M394.5,111.44c-1.35-.63-2-8.51,3.4-11.79s11.61,1.51,8.33,7.65C404.16,111.17,397.35,112.79,394.5,111.44Z" style="fill:#263238"></path><path d="M405.08,99.79a8.7,8.7,0,0,1,2.54,5.18,5.29,5.29,0,0,1-2,4.88,10.72,10.72,0,0,1-5.29,2.05,16,16,0,0,1-2.94.12,7.92,7.92,0,0,1-2.92-.58,7.22,7.22,0,0,0,2.85,1.12,13.85,13.85,0,0,0,3.09.21,10.32,10.32,0,0,0,5.91-2.06,5.88,5.88,0,0,0,2.12-5.87A7.67,7.67,0,0,0,405.08,99.79Z" style="fill:#263238"></path><path d="M381.61,157c-6.44-6.5-25.12-25.91-26-27.41s-17.74-32.06-19.82-37.12c-1.47-3.56-24.84,13.26-23.38,16.29,3.41,7.1,14.28,26.72,20.61,34.47,5.17,6.33,35.3,21.9,44.59,25.45S392.2,167.64,381.61,157Z" style="fill:#f7a9a0"></path><path d="M304.72,96.6c1.39,5.56,8.69,15.82,11.41,17.62s20.57-10,20.81-13.37-5.9-21.7-10.56-25.24S303.27,90.84,304.72,96.6Z" style="fill:#f7a9a0"></path><path d="M332.45,82.5c-2.19,2.1-3.8.19-3.8.19s3.25,4.91,1.17,7.55-5.41-.86-5.66-1.1c.17.26,3,4.86.68,7.29s-5.29-1.47-5.47-1.73c.08.3,1.11,4.25-1.11,5.69-3.8,2.48-6.71-7.55-10-9.19,0,0-3.41,5.27-3.54,5.4s-3-9.49-.5-13.8a3.16,3.16,0,0,1,3.67-1.52s-1.29-3,.51-4.93c.92-1,3.37-.43,3.37-.43a4,4,0,0,1,.77-4.07c1.36-1.33,3.6-.54,3.6-.54S309,60.24,311.69,58c4.62-3.81,18.57,20.73,21.2,21C334.19,79.15,333.41,81.58,332.45,82.5Z" style="fill:#f7a9a0"></path><path d="M316.51,71.38s0-.1,0-.07a28.2,28.2,0,0,1,12.27,11.51c.09.16,0,1-.1.83C326,79.3,321.3,74.75,316.51,71.38Z" style="fill:#263238"></path><path d="M311.73,75.84c-.06,0,0-.12.06-.09a26.43,26.43,0,0,1,12.6,13.38c.08.21-.05.47-.16.25C322.37,85.5,316.05,78.85,311.73,75.84Z" style="fill:#263238"></path><path d="M319.39,95.18c-2.47-5.67-6.5-10-11.28-13.81-.07-.05,0-.13.08-.11,2.84,1.24,5.64,4,7.63,6.33a16.29,16.29,0,0,1,3.77,7.5C319.61,95.2,319.44,95.3,319.39,95.18Z" style="fill:#263238"></path><path d="M328.75,82.7c.1.19-.56.07-.47.27,1,2.14,2.69,6.06,1.14,7.29-1.25,1-3.43,0-4.12-.71l-1.74-1.79,1,2.28a10.21,10.21,0,0,1,.86,3.19,3.64,3.64,0,0,1-.78,2.88,2.09,2.09,0,0,1-2.57.51,6.36,6.36,0,0,1-2.29-2.18L318.14,92l.75,2.84a9.43,9.43,0,0,1,.33,2.43,4,4,0,0,1-.56,2.2,1.89,1.89,0,0,1-1.8.83,4.11,4.11,0,0,1-2-1.23,32.24,32.24,0,0,1-3.17-4c-.51-.7-1-1.4-1.56-2.08a6,6,0,0,0-1.9-1.76A6.62,6.62,0,0,1,310,93.1c.48.71.93,1.45,1.38,2.19a27.63,27.63,0,0,0,3,4.27,4.89,4.89,0,0,0,2.31,1.55,2.67,2.67,0,0,0,2.7-1.12,4.7,4.7,0,0,0,.77-2.72,9.88,9.88,0,0,0-.32-2.7L319,95a7.17,7.17,0,0,0,2.68,2.59,3,3,0,0,0,2,.28,3.38,3.38,0,0,0,1.73-1,4.56,4.56,0,0,0,1-3.64,11,11,0,0,0-1-3.49l-.73.49c.91.87,3.24,2.25,5.36,1C332.52,89,329.39,83.64,328.75,82.7Z" style="fill:#263238"></path><path d="M336.94,100.85s4.62-15.18,2.36-20-14.07-6.38-18.46-6.24c-6.06.19-5.32,4.51-2.59,6.33,3.16,2.11,8.74,3.58,9.13,3.68,0,0-6.39,6.76-4.65,13.31S336.94,100.85,336.94,100.85Z" style="fill:#f7a9a0"></path><path d="M329.4,75.47c-3.47-.38-7.17-1-10.58-.24-2.56.76-2.84,3.06-.9,4.74a13.87,13.87,0,0,0,2.91,1.85,26.71,26.71,0,0,0,7.5,2.5,16.58,16.58,0,0,0-5.5,9.12,15.59,15.59,0,0,0-.31,3.35,15.16,15.16,0,0,1,4.57-12.54l.23.77a24.66,24.66,0,0,1-6.94-2.31c-2.67-1.15-6.7-4.53-3.53-7.37,1.53-1.24,3.65-1.14,5.44-1a37.17,37.17,0,0,1,7.11,1.18Z" style="fill:#263238"></path><path d="M364,194.51l-.31,12.62,51.49.45s-7.89-40-18.19-52.58c-7-8.6-13.74-7.1-19.26-1.27-1.4,1.47-16.29,19-17.91,27.64C358.37,189,364,194.51,364,194.51Z" style="fill:#f7a9a0"></path><path d="M378.18,153.21c.46.95-10.74,19.2-10.86,20.2s4.85,3.32,7.2,3.13,7.23-1.8,8.49-3,7.92-22.19,8.52-23,2.72,1.32,2.72,1.32-4.26,23.67-3.44,25.55c5,11.59,21.72,18.23,21.72,18.23l2.61,11.9-27.7,5.19-23.79-5.64-.33-12.58s-5.68-6.51-3.66-14.19,15-24.57,16.26-25.77C376.32,154.21,378.05,152.93,378.18,153.21Z" style="fill:#455a64"></path><path d="M371.48,192.38a48.76,48.76,0,0,1,7.84,2c1.26.46,2.5,1,3.74,1.55.62.28,1.24.53,1.86.78a7.51,7.51,0,0,0,2,.57.06.06,0,0,1,0,.11,13,13,0,0,1-2-.17,13.84,13.84,0,0,1-1.85-.53c-1.29-.45-2.56-1-3.84-1.45-2.6-.94-5.19-1.89-7.84-2.62C371.31,192.59,371.35,192.36,371.48,192.38Z" style="fill:#263238"></path><path d="M364.7,194.61a52.69,52.69,0,0,1,6.65.09c1.11.09,2.2.25,3.3.45l1.56.3c.57.13,1.13.34,1.7.45.06,0,0,.12,0,.11-.54-.09-1.1-.08-1.65-.13l-1.65-.16-3.3-.31c-2.21-.24-4.41-.45-6.62-.59C364.56,194.81,364.59,194.62,364.7,194.61Z" style="fill:#263238"></path><path d="M389.83,152c-.36,1.08-6.24,7.8-11.27,7.13-1.64-.22-.84-9.21-.84-9.21l-.09-.68-1.28-9.48,13.9-6.65S390,151.49,389.83,152Z" style="fill:#f7a9a0"></path><path d="M376.34,139.7l1.29,9.49.09.68a24.43,24.43,0,0,0,12.35-6.52s.17-10.29.17-10.29Z" style="fill:#263238"></path><path d="M367,124.91c-3.77,16.37,5.61,20.47,9.14,21.28,3.21.74,14.21,2.83,19.65-13.07s-1-22.81-8.22-24.88S370.8,108.54,367,124.91Z" style="fill:#f7a9a0"></path><path d="M370.5,122.64a11.07,11.07,0,0,0,1.15.06,1.94,1.94,0,0,0,1.19-.17.59.59,0,0,0,.18-.7,1.46,1.46,0,0,0-1.32-.7,2.2,2.2,0,0,0-1.51.39A.64.64,0,0,0,370.5,122.64Z" style="fill:#263238"></path><path d="M381.51,124.92a10.76,10.76,0,0,1-1-.65,1.87,1.87,0,0,1-.84-.85.6.6,0,0,1,.27-.67,1.5,1.5,0,0,1,1.48.23,2.22,2.22,0,0,1,1,1.23A.63.63,0,0,1,381.51,124.92Z" style="fill:#263238"></path><path d="M378.55,127.78s.08.07.07.11c-.28,1.11-.41,2.42.52,3,0,0,0,.08,0,.06C377.92,130.51,378.11,128.78,378.55,127.78Z" style="fill:#263238"></path><path d="M379.8,126.83c1.81.25,1.18,3.87-.51,3.63S378.27,126.62,379.8,126.83Z" style="fill:#263238"></path><path d="M380.47,127.15c.28.26.53.67.9.78s.83-.2,1.18-.52c0,0,.07,0,.06.06-.11.69-.5,1.35-1.26,1.33s-1.08-.73-1.13-1.45C380.21,127.21,380.36,127,380.47,127.15Z" style="fill:#263238"></path><path d="M372.28,126.22s-.1,0-.1.08c-.16,1.13-.52,2.39-1.6,2.59,0,0,0,.07,0,.07C371.85,129,372.32,127.31,372.28,126.22Z" style="fill:#263238"></path><path d="M371.48,124.88c-1.78-.44-2.53,3.15-.88,3.56S373,125.25,371.48,124.88Z" style="fill:#263238"></path><path d="M370.68,125c-.33.13-.68.42-1,.37s-.61-.51-.78-.93c0-.05-.06,0-.07,0-.16.69-.08,1.45.55,1.72s1.14-.25,1.45-.9C370.86,125.12,370.81,124.9,370.68,125Z" style="fill:#263238"></path><path d="M376.8,136.88c-.31.23-.62.55-1,.54a3.14,3.14,0,0,1-1.17-.44s-.08,0-.06.05a1.52,1.52,0,0,0,1.35.79,1.22,1.22,0,0,0,1-.88A.06.06,0,0,0,376.8,136.88Z" style="fill:#263238"></path><path d="M372.81,131.71s-.54,1.63-.69,2.41c0,.08.17.15.43.21,0,0,0,0,0,0a3.82,3.82,0,0,0,3.9-.71.08.08,0,0,0-.1-.13,5.79,5.79,0,0,1-3.6.33c0-.23,1-2.75.91-2.78a7,7,0,0,0-1.87.06c1-3.41,2.61-6.64,3.59-10.06a.11.11,0,0,0-.19-.09,57.89,57.89,0,0,0-4.33,10.68C370.74,132.07,372.47,131.79,372.81,131.71Z" style="fill:#263238"></path><path d="M372.92,134.27a4.41,4.41,0,0,0,1.47,1.69,2,2,0,0,0,1.18.31c.9-.06,1.08-.85,1.05-1.55a4.93,4.93,0,0,0-.18-1.11A5.74,5.74,0,0,1,372.92,134.27Z" style="fill:#263238"></path><path d="M374.39,136a2,2,0,0,0,1.18.31c.9-.06,1.08-.85,1.05-1.55A2.06,2.06,0,0,0,374.39,136Z" style="fill:#ff98b9"></path><path d="M394.1,134.44c-3.42-.9-1.61-8.81-1.61-8.81s-5.54-2.54-7-7.09c0,0,.76,3.82,2.68,5.8.32.33-11.18-3.81-10-13.13,0,0-4,8.49-9.82,9-.27,0,2.83-7.93,5-9.41a17.82,17.82,0,0,1,4.11-2.06,17.41,17.41,0,0,1,13.18-.11c7,2.87,9.83,11.68,9.59,14.94C399.83,130,395.73,134.87,394.1,134.44Z" style="fill:#263238"></path><path d="M387.79,124.44c-6.37-1.89-10.47-7.28-9.36-14a.15.15,0,0,0-.28-.07c-2.54,6.45,3.45,13.14,9.67,14.19C388,124.6,387.94,124.49,387.79,124.44Z" style="fill:#263238"></path><path d="M394.18,134.07c-3-2.66-2.71-6.3-2.09-9.93,0-.1-.16-.15-.18,0-.93,3.47-1.37,7.91,2.07,10.24A.17.17,0,0,0,394.18,134.07Z" style="fill:#263238"></path><path d="M378.46,109.83s0,0-.07,0c-1.7,3.49-3.42,9.67-8.38,9.42a.1.1,0,0,0,0,.2C374.73,120.1,378,113.77,378.46,109.83Z" style="fill:#263238"></path><path d="M392.32,133s4.38-4.71,6.57-3.08-1.61,8.82-4.53,9.47a2.85,2.85,0,0,1-3.58-2.05Z" style="fill:#f7a9a0"></path><path d="M397.75,131.92a0,0,0,0,1,0,.08c-2.06.52-3.33,2.19-4.31,4a1.57,1.57,0,0,1,2.39-.1c.05,0,0,.11-.06.1a1.73,1.73,0,0,0-2,.34,8.25,8.25,0,0,0-1.14,1.42c-.11.16-.41,0-.32-.17l0,0C392.63,135,395.05,131.8,397.75,131.92Z" style="fill:#263238"></path><path d="M396.49,167.48c-15,29.54-30.7,43.83-38.94,44-9.17.17-.67-28.85.58-29.45.95-.46,15.38-11.76,28.94-22C399.51,150.69,401.05,158.49,396.49,167.48Z" style="fill:#f7a9a0"></path><path d="M358.13,182q12.12-10.15,25.17-19.11Q371.18,173.05,358.13,182Z" style="fill:#263238"></path><path d="M381.48,162.9a18.25,18.25,0,0,1-2.4,3.19,5.15,5.15,0,0,1,2.4-3.19Z" style="fill:#263238"></path><path d="M379.17,195.07c5.66-8.11,11.62-16.5,16.22-25.25-3.76,9.32-9.7,17.67-16.22,25.25Z" style="fill:#263238"></path><path d="M396.07,171.5a10.05,10.05,0,0,1-3.65,4.13,29.8,29.8,0,0,1,3.65-4.13Z" style="fill:#263238"></path><path d="M356.44,211.33c-5.68-1.29-8.91-7.8-20.28-31.28-1.57-3.25,18.84-19.29,20.7-15.9,2.34,4.26,8.67,16.34,9.11,17.66C369.67,193,360.8,212.31,356.44,211.33Z" style="fill:#f7a9a0"></path><path d="M362.1,177.06s-1.64-10-5.21-17.81c-2.48-5.38-9.17-16.47-26.74-18.26-4.17-.42-10.41,1.93-3.85,5.09,4.66,2.25,8.29,2.27,10.76,4.07,0,0-7.58,3.93-7.85,8.12a79.11,79.11,0,0,0,.1,11,16.54,16.54,0,0,0,2.06.16s.66,7.46,5.72,12.54Z" style="fill:#f7a9a0"></path><path d="M353.7,154.5c-2.83-1.27-8.87-3.86-14.55-4.26-6.31-.45-18.58.4-18.86,5.06-.2,3.42,4.51,3.51,4.51,3.51s-5,1.42-4.51,4.54c.45,2.85,4.1,2.7,4.1,2.7s-2.89,1.39-1.93,4c1.16,3.2,7-.22,11,2C334.34,172.61,353.7,154.5,353.7,154.5Z" style="fill:#f7a9a0"></path><path d="M339.8,157a25.18,25.18,0,0,0-14.93,1.72c-.11.05-.13.17,0,.14a62.37,62.37,0,0,1,14.94-1.8A0,0,0,0,0,339.8,157Z" style="fill:#263238"></path><path d="M339.16,163.34c-2.53-.4-9.68-.14-14.79,2.6-.12.06-.13.18,0,.15a66,66,0,0,1,14.8-2.69S339.19,163.34,339.16,163.34Z" style="fill:#263238"></path><path d="M365.21,198.21c.87-4.43,1.65-9.14.87-13.62-1.23-4.41-3.42-8.55-5.51-12.61-2.19-11-7.59-22.43-18.29-27.37a44.11,44.11,0,0,0-10.86-3.47,41.83,41.83,0,0,1,11,3.09c11,4.74,16.67,16.36,18.76,27.56a60.19,60.19,0,0,1,5.32,12.69c.73,4.58-.28,9.28-1.33,13.73Z" style="fill:#263238"></path></g><g id="freepik--character-4--inject-117"><path d="M597.08,105.45s11-2.74,18.15,4.84,7.69,21.77,3.3,32.36,2.63,20.24,1.42,28.65-7.57,10.77-10.51,14.57c-3.37,4.35.23,24-21.83,22.41-27.59-1.95-33.33-20.77-27.09-33.4,3.05-6.19,8-9.85,9.31-15.16S568.56,149.2,572.3,143s6.08-4.58,10-14.83S587.31,104.77,597.08,105.45Z" style="fill:#263238"></path><path d="M613.48,109.56a33.61,33.61,0,0,1,8.43,18.24,31.42,31.42,0,0,1-.32,10.15c-.88,4.36-2.61,8.2-2.12,12.79.78,7.36,4.41,14.29,2.18,21.65a18.94,18.94,0,0,1-5.74,8.85c-3.16,2.76-7.1,4.54-9.95,7.63-.12.13-.32-.06-.21-.19,2.44-2.77,5.66-4.53,8.55-6.82a19.32,19.32,0,0,0,7-10.65c1.68-7.11-1.92-13.89-2.56-21a23.51,23.51,0,0,1,1.3-9.07,32.92,32.92,0,0,0,1.48-11,35.62,35.62,0,0,0-8.13-20.57C613.34,109.57,613.44,109.51,613.48,109.56Z" style="fill:#263238"></path><path d="M603.13,192.72a0,0,0,1,1,0,.05S603.1,192.71,603.13,192.72Z" style="fill:#263238"></path><path d="M561.12,173c1.5-3,3.91-5.4,5.41-8.37,1.8-3.58,1.85-7.61,2.12-11.52.39-5.58,1.84-10.56,5.52-14.94,2.37-2.82,5-5.35,7.06-8.45a41.49,41.49,0,0,0,5-10.87c0-.09.16,0,.14,0a37.7,37.7,0,0,1-7.85,15.34c-2.23,2.6-4.76,4.93-6.44,7.93-2,3.61-2.63,7.45-3,11.51a45.11,45.11,0,0,1-1.12,8.11,22.62,22.62,0,0,1-3.92,7.23,28.16,28.16,0,0,0-5.22,20.06c0,.12-.21.15-.23,0A26.73,26.73,0,0,1,561.12,173Z" style="fill:#263238"></path><path d="M620.91,170.55c1.32-5.88-1.68-10.91-2.8-16.61-.84-4.31-1-8.71.72-12.75,0-.06.14,0,.12.05-1.94,6-.85,12.19,1.15,18.17,1.34,4,2.32,7.73,1.25,11.8s-3.53,6.93-6.68,9.63c-2.25,1.92-4.43,3.69-5.85,6.29a30.38,30.38,0,0,0-2.66,8.37c0,.15-.27.08-.24-.06.77-4.46,1.84-8.71,5.09-12.1C615,179.17,619.57,176.52,620.91,170.55Z" style="fill:#263238"></path><path d="M561.21,168.62a36.92,36.92,0,0,1,4.85-4.75c3.09-2.67,4.17-5.23,4.47-9.31,0-.09.15-.1.15,0,.22,3.48-.24,6.21-2.92,8.65-3.74,3.41-7.34,6.46-9.19,11.22-3.29,8.46-.53,17.9,6.27,24.43.09.09-.05.22-.15.14-5.81-5.09-8.92-12.3-8-19.6A21.49,21.49,0,0,1,561.21,168.62Z" style="fill:#263238"></path><path d="M523.5,463.83c2.31.74,68.23,0,70.72-1.64.95-.6,1.4-10.21,1.62-21.83,0-2.51.07-5.1.09-7.74.14-17.09-.11-35.23-.11-35.23l-44.09.38L553.05,433l.29,7.73s-25.11,11.58-27.65,13.65S521.19,463.08,523.5,463.83Z" style="fill:#c95f50"></path><path d="M523.5,463.83c2.31.74,68.23,0,70.72-1.64,1.16-.74,1.58-14.77,1.71-29.57l-42.88.37.29,7.73s-25.11,11.58-27.65,13.65S521.19,463.08,523.5,463.83Z" style="fill:#ebebeb"></path><path d="M523.5,463.83c2.31.74,68.23,0,70.72-1.64.95-.6,1.4-10.21,1.62-21.83l-42.5.36s-25.11,11.58-27.65,13.65S521.19,463.08,523.5,463.83Z" style="fill:#B0BEC5"></path><path d="M524.42,461.18c11-.4,55.63-1,66.58-.52.09,0,.09.07,0,.07-10.94.63-55.53.84-66.58.63C524.19,461.36,524.19,461.19,524.42,461.18Z" style="fill:#263238"></path><path d="M529.9,452a8.88,8.88,0,0,1,6.64,2.62,8.62,8.62,0,0,1,2.54,5.87c0,.07-.13.07-.14,0a10.24,10.24,0,0,0-9-8.35A.07.07,0,0,1,529.9,452Z" style="fill:#263238"></path><path d="M549.07,441.87c4.42-.11,9.56,1.39,12.35,5,.11.14-.09.29-.22.22a61,61,0,0,0-12.2-4.65A.28.28,0,0,1,549.07,441.87Z" style="fill:#263238"></path><path d="M545.67,443.24c4.42-.11,9.56,1.39,12.35,5,.11.14-.09.29-.22.22a61,61,0,0,0-12.2-4.65A.28.28,0,0,1,545.67,443.24Z" style="fill:#263238"></path><path d="M542.27,444.61c4.42-.11,9.56,1.39,12.35,5,.11.14-.09.29-.22.22a61.62,61.62,0,0,0-12.2-4.65A.28.28,0,0,1,542.27,444.61Z" style="fill:#263238"></path><path d="M538.87,446c4.42-.11,9.57,1.39,12.36,5,.1.14-.09.29-.23.22a61.62,61.62,0,0,0-12.2-4.65A.28.28,0,0,1,538.87,446Z" style="fill:#263238"></path><path d="M588.07,450.2c5,0,5,7.67.06,7.71S583.1,450.24,588.07,450.2Z" style="fill:#263238"></path><path d="M544.58,436.6c2.42,3.06,6.08,4.95,9.25,7.09a.53.53,0,0,0,.79-.36c.08,0,.15,0,.14-.13a23.18,23.18,0,0,0-4.15-11.26c-1.4-1.91-4.24-3.7-6.46-1.81S543.16,434.82,544.58,436.6Zm-.25-3.66c.39-4.81,4.77-1.17,5.75.28a26.79,26.79,0,0,1,1.65,3,69.93,69.93,0,0,1,2.56,6.52c-1.49-1.15-3.07-2.16-4.61-3.25C547.85,438.16,544.12,435.6,544.33,432.94Z" style="fill:#263238"></path><path d="M570.43,440.2c-.38-2.88-3.68-3.47-6-3a23.21,23.21,0,0,0-10.64,5.57.11.11,0,0,0,0,.18.53.53,0,0,0,.34.8c3.79.55,7.77,1.6,11.62,1C568,444.34,570.79,442.93,570.43,440.2Zm-10.37,3.2c-1.87-.22-3.72-.53-5.6-.68a69.38,69.38,0,0,1,6.29-3.12,25.8,25.8,0,0,1,3.21-1.09c1.7-.41,7.39-.17,4.45,3.65C566.78,444.28,562.29,443.67,560.06,443.4Z" style="fill:#263238"></path><path d="M609.36,207.13s-9.91,111.55-11.53,120.07c-.37,1.94-.6,12.48-.75,26-.35,29.57-.14,62.1-.14,62.1H550.4s1.38-71.6,3.44-88.61,15.23-119.59,15.23-119.59Z" style="fill:#263238"></path><path d="M552.5,407.22c7.26-.15,5.18-.21,12.44-.28,3.56,0,26.91-.24,30.23.31.07,0,.07.14,0,.15-3.32.55-26.67.35-30.23.31-7.26-.07-5.18-.13-12.44-.28A.11.11,0,0,1,552.5,407.22Z" style="fill:#37474f"></path><path d="M588.09,375.2q.09-10.12.16-20.25c0-6.53,0-13.08.34-19.61.63-13.22,3.32-26.23,5.23-39.3s3.5-26.21,4.94-39.35c1.61-14.75,3-29.51,4.56-44.27,0-.1.17-.09.16,0-2.2,26.34-4.64,52.68-8.29,78.87q-1.37,9.76-3,19.5c-1.09,6.57-2.17,13.14-2.69,19.78s-.59,13-.65,19.54l-.21,20.24c-.14,15-.29,17.23-.43,32.22a.23.23,0,0,1-.45,0C587.89,389.2,588,388.57,588.09,375.2Z" style="fill:#37474f"></path><path d="M619.17,207.13S599.45,318.68,597.83,327.2c-.37,1.94-.6,12.48-.75,26v0L574.89,207.13Z" style="fill:#37474f"></path><path d="M634.62,468.74c2.38-.51,59.18-33.95,60.54-36.6.52-1-3.86-9.55-9.46-19.74-1.21-2.2-2.47-4.47-3.76-6.76-8.39-14.9-17.63-30.51-17.63-30.51L626.25,397.4l18.67,29.89,4.09,6.56s-16,22.54-17.2,25.6S632.25,469.24,634.62,468.74Z" style="fill:#c95f50"></path><path d="M634.62,468.74c2.38-.51,59.18-33.95,60.54-36.6.63-1.22-6-13.6-13.22-26.5l-37,21.65,4.09,6.56s-16,22.54-17.2,25.6S632.25,469.24,634.62,468.74Z" style="fill:#ebebeb"></path><path d="M634.62,468.74c2.38-.51,59.18-33.95,60.54-36.6.52-1-3.86-9.55-9.46-19.74L649,433.85s-16,22.54-17.2,25.6S632.25,469.24,634.62,468.74Z" style="fill:#B0BEC5"></path><path d="M634.1,466c9.39-5.84,47.79-28.51,57.51-33.57.07-.05.11,0,0,.06-9.17,6-47.76,28.35-57.45,33.66C634,466.25,633.9,466.11,634.1,466Z" style="fill:#263238"></path><path d="M634.26,455.25a8.9,8.9,0,0,1,7.07-1,8.6,8.6,0,0,1,5.12,3.84c0,.05-.07.12-.11.06a10.28,10.28,0,0,0-12-2.75A.07.07,0,0,1,634.26,455.25Z" style="fill:#263238"></path><path d="M645.88,437c3.78-2.3,9-3.56,13.19-1.83.17.06.07.29-.08.3a61.36,61.36,0,0,0-12.9,2A.27.27,0,0,1,645.88,437Z" style="fill:#263238"></path><path d="M643.61,439.86c3.78-2.3,9-3.56,13.2-1.84.16.07.06.3-.09.31a61.36,61.36,0,0,0-12.9,2A.27.27,0,0,1,643.61,439.86Z" style="fill:#263238"></path><path d="M641.35,442.74c3.78-2.3,9-3.56,13.19-1.84.16.07.07.3-.08.31a61.26,61.26,0,0,0-12.9,2A.27.27,0,0,1,641.35,442.74Z" style="fill:#263238"></path><path d="M639.08,445.61c3.78-2.29,9-3.55,13.19-1.83.17.07.07.3-.08.31a61.36,61.36,0,0,0-12.9,2A.28.28,0,0,1,639.08,445.61Z" style="fill:#263238"></path><path d="M683.86,424.8c4.28-2.51,8.18,4.15,3.89,6.66S679.57,427.31,683.86,424.8Z" style="fill:#263238"></path><path d="M639.37,434.64c3.61,1.44,7.73,1.27,11.55,1.55a.53.53,0,0,0,.5-.71c.07,0,.11-.11.06-.18a23.27,23.27,0,0,0-9.2-7.71c-2.17-1-5.52-1.09-6.51,1.64S637.25,433.8,639.37,434.64Zm-2-3.05c-2.06-4.37,3.55-3.39,5.12-2.62a25.21,25.21,0,0,1,2.91,1.75c1.95,1.32,3.67,2.89,5.47,4.38-1.87-.25-3.74-.34-5.61-.52C643,434.36,638.47,434,637.33,431.59Z" style="fill:#263238"></path><path d="M663.58,424.9c-1.76-2.32-4.92-1.18-6.7.38a23.24,23.24,0,0,0-6.46,10.12.13.13,0,0,0,.11.16.53.53,0,0,0,.69.52c3.56-1.41,7.54-2.48,10.56-4.95C663.54,429.7,665.25,427.08,663.58,424.9Zm-7.4,7.93c-1.73.74-3.49,1.39-5.2,2.19a68.75,68.75,0,0,1,3.91-5.82,23.52,23.52,0,0,1,2.24-2.54c1.27-1.21,6.33-3.84,5.67.95C662.44,430.25,658.25,432,656.18,432.83Z" style="fill:#263238"></path><path d="M636,417.9l40-24.72s-38.49-58.52-38.72-64.8c-.35-9.32-4.82-47.79-8.58-78.95,0,0,7.12-16.86-6.2-42.34H569s3.58,24.24,9.71,39.62a71.58,71.58,0,0,1,11.88,5.42s5.32,69.46,5.52,78.12C596.53,347.38,636,417.9,636,417.9Z" style="fill:#263238"></path><path d="M633.34,408.06c6.15-3.86,4.33-2.84,10.53-6.63,3-1.86,23-14,26.1-15.26a.08.08,0,0,1,.08.13c-2.57,2.18-22.72,14-25.78,15.79-6.27,3.67-4.51,2.55-10.82,6.15A.11.11,0,0,1,633.34,408.06Z" style="fill:#37474f"></path><path d="M576.71,245.65a87.9,87.9,0,0,1,13.91,6.48.16.16,0,0,1-.13.29c-4.68-2-9.46-3.94-14-6.21A.31.31,0,0,1,576.71,245.65Z" style="fill:#37474f"></path><path d="M583.26,237.92c-.46-2.8-.84-5.6-1.08-8.42a77.67,77.67,0,0,1,.17-15.77.14.14,0,0,1,.27,0,145.48,145.48,0,0,0,1.28,21.78c.52,3.47,2.27,8.69-1.36,9.22s-6.08-8.2-6.53-10.59a80.17,80.17,0,0,1-.79-20.64c0-.16.3-.2.3,0a155.27,155.27,0,0,0,.79,15.66c.21,2.41,2.16,15.75,6.34,14.77.7-.16,1.06-.85,1.17-1.9a16.86,16.86,0,0,0-.56-4.09" style="fill:#37474f"></path><path d="M582.54,244.27a22.57,22.57,0,0,1,.94,2.77,6.31,6.31,0,0,1,.39,2.27.16.16,0,0,1-.29.06,7.82,7.82,0,0,1-1-2.21c-.32-.86-.66-1.7-1-2.57A.47.47,0,0,1,582.54,244.27Z" style="fill:#37474f"></path><path d="M616.18,210.45a49.47,49.47,0,0,1,4.2,8.74,56.91,56.91,0,0,1,2.59,9.36,49.85,49.85,0,0,1-.18,19.37v-.11l3.68,36.37,3.61,36.37.91,9.08.13,1.12a3.32,3.32,0,0,0,.36.92c.32.67.68,1.34,1,2,.72,1.33,1.47,2.66,2.23,4,3,5.27,6.14,10.51,9.23,15.76l18.7,31.4c-6.53-10.29-13-20.61-19.34-31-3.19-5.19-6.34-10.4-9.39-15.68-.76-1.32-1.52-2.65-2.26-4-.37-.67-.73-1.34-1.07-2a4.18,4.18,0,0,1-.45-1.2l-.14-1.15-.95-9.09c-1.25-12.12-2.38-24.25-3.55-36.38l-1.74-18.19-1.66-18.2v-.1a49.56,49.56,0,0,0,1.15-9.56,53.41,53.41,0,0,0-.7-9.61,56.37,56.37,0,0,0-2.39-9.36A49.16,49.16,0,0,0,616.18,210.45Z" style="fill:#37474f"></path><path d="M592.89,161.29c-7.1,13-18.3,33.32-25.45,38.12-8,5.34-32.18-10.27-47.8-19.56-3.11-1.85,9.73-26.85,13-24.71,8.4,5.6,25.83,18.69,28,18.11,1.8-.47,13.66-11.58,22-18.19C596,144.55,597.88,152.11,592.89,161.29Z" style="fill:#c95f50"></path><path d="M506.33,174.12c4.58,4.17,17.28,9.06,20.8,9.06s12.54-21.31,10.77-24.46-18.26-16-24.57-16.43S501.59,169.79,506.33,174.12Z" style="fill:#c95f50"></path><path d="M522.9,144.87c.93,3.15-3.31,2.44-3.31,2.44s5.86,2.49,5.56,6.11-5.39,2.44-5.75,2.38c.31.13,5.63,2.56,5,6.16-.7,3.75-5.64,1.83-6,1.7.25.22,3.53,3.17,2.4,5.79-1.95,4.5-10.55-2.8-14.49-2.31,0,0,.06,6.78,0,7,0,0-8.32-6.78-8.68-12.14a3.43,3.43,0,0,1,2.4-3.56s-2.92-1.89-2.48-4.74c.23-1.46,2.78-2.4,2.78-2.4a4.29,4.29,0,0,1-1.73-4.12c.43-2,2.92-2.64,2.92-2.64s-1.47-2.56-.36-4.47C503.41,136.2,520.91,138.13,522.9,144.87Z" style="fill:#c95f50"></path><path d="M501.92,144.36a0,0,0,0,1,0-.09,30.54,30.54,0,0,1,17.91,3c.18.1.1.42-.11.35A62.71,62.71,0,0,0,501.92,144.36Z" style="fill:#263238"></path><path d="M500.26,151.24c-.06,0-.06-.12,0-.13a28.64,28.64,0,0,1,19.34,4.54c.19.14.23.46,0,.32C515.62,153.59,506,151.37,500.26,151.24Z" style="fill:#263238"></path><path d="M518.7,164.08c-5.6-3.63-11.81-5.11-18.4-5.71-.08,0-.06-.12,0-.14,3.3-.58,7.47.24,10.65,1.15a17.53,17.53,0,0,1,7.87,4.51C518.92,164,518.82,164.16,518.7,164.08Z" style="fill:#263238"></path><path d="M519.59,147.31a19.81,19.81,0,0,1,3.06,2,6.7,6.7,0,0,1,2.18,2.75,2.2,2.2,0,0,1,0,1.58,3.27,3.27,0,0,1-1,1.3,3.91,3.91,0,0,1-3.15.52l-2.64-.57,2.28,1.45a10.76,10.76,0,0,1,2.67,2.36,3.9,3.9,0,0,1,1,3.05,2.25,2.25,0,0,1-2,2,6.74,6.74,0,0,1-3.36-.59l-3-1.22,2.37,2.11a10,10,0,0,1,1.74,2,4.29,4.29,0,0,1,.81,2.32,2,2,0,0,1-1.13,1.82,4.47,4.47,0,0,1-2.5.07,35.93,35.93,0,0,1-5.26-1.73c-.87-.33-1.75-.66-2.64-.95a6.55,6.55,0,0,0-2.76-.45,7.13,7.13,0,0,1,2.67.69c.86.35,1.7.75,2.55,1.14A30.16,30.16,0,0,0,516.8,171a5.31,5.31,0,0,0,3,0,2.87,2.87,0,0,0,1.77-2.61,5.22,5.22,0,0,0-.93-2.91,11.34,11.34,0,0,0-1.9-2.25l-.57.89a7.8,7.8,0,0,0,4,.74,3.31,3.31,0,0,0,2-1,3.77,3.77,0,0,0,.94-2,5,5,0,0,0-1.29-3.87,11.93,11.93,0,0,0-3-2.55l-.36.88a4.68,4.68,0,0,0,3.86-.85,3.94,3.94,0,0,0,1.14-1.66,2.89,2.89,0,0,0-.06-2,6.87,6.87,0,0,0-2.53-2.8A16.61,16.61,0,0,0,519.59,147.31Z" style="fill:#263238"></path><path d="M535.47,156s-10.86-23.94-18.14-15.1c-2.16,2.62-7.9,16-5.24,17.18,3.43,1.56,6.87-3.57,8.52-7.13,0,0,2.55,8.66,9.11,8.69A6.52,6.52,0,0,0,535.47,156Z" style="fill:#c95f50"></path><path d="M518,140.23a14,14,0,0,0-2.45,3.16,29.51,29.51,0,0,0-1.84,3.58,47.34,47.34,0,0,0-2.65,7.62,7.67,7.67,0,0,0-.22,2.12,2.9,2.9,0,0,0,.32,1.18,1.93,1.93,0,0,0,.4.54,2.36,2.36,0,0,0,.56.37,3.42,3.42,0,0,0,2.35.12,6.28,6.28,0,0,0,1.93-1,12.09,12.09,0,0,0,2.73-3.13,28,28,0,0,0,1.92-3.58l-.87-.08a15.9,15.9,0,0,0,1.25,2.82,15.68,15.68,0,0,0,1.74,2.52,10.68,10.68,0,0,0,2.32,2,7.76,7.76,0,0,0,2.81,1.09,8.72,8.72,0,0,1-2.62-1.36,10.63,10.63,0,0,1-2-2.08,15.42,15.42,0,0,1-2.55-5.21l-.31-1.16-.56,1.08a28.23,28.23,0,0,1-2,3.39,11.88,11.88,0,0,1-2.52,2.84,3.34,3.34,0,0,1-3.14.78c-.85-.31-.74-1.77-.49-3a37.34,37.34,0,0,1,1-3.8c.39-1.27.79-2.53,1.26-3.76A25.7,25.7,0,0,1,518,140.23Z" style="fill:#263238"></path><path d="M592.89,161.29c-7.1,13-18.3,33.32-25.45,38.12-4.24,2.85-13.12-.27-22.86-5.21l49.8-43.65C596.23,152.09,595.51,156.47,592.89,161.29Z" style="opacity:0.1"></path><path d="M568.63,209.64h55.3s-4.92-12-8.25-15.75c0,0-3.22-29.12-9.33-38.45-4.8-7.33-10.73-7.37-16.32-4.17-1.4.8-17.6,21.51-19.42,28.17-2,7.25,1.33,10.91,1.33,10.91Z" style="fill:#c95f50"></path><path d="M568.63,209.65,571.46,190s-2.83-5.3-.86-10.57a40,40,0,0,1,3.21-6.46,0,0,0,0,0,0,0c3.23-2.4,7.56,4.09,7.56,4.09s4.56-5.09,9.87-5.17,9.63,7.49,10.78,8.86L614.91,188c.5,3.55.77,5.88.77,5.88,3.33,3.78,8.25,15.76,8.25,15.76Z" style="fill:#B0BEC5"></path><path d="M586.83,190.86a27.39,27.39,0,0,0-5.47.43c-.91.19-1.81.43-2.71.69-.45.14-.9.25-1.35.36a4.33,4.33,0,0,1-1.42.15s-.06.09,0,.09a6.63,6.63,0,0,0,1.32.17,7.18,7.18,0,0,0,1.3-.14c.92-.18,1.84-.41,2.76-.6,1.86-.37,3.72-.75,5.58-.93C586.91,191.07,586.92,190.86,586.83,190.86Z" style="fill:#37474f"></path><path d="M590.87,193.78a27.45,27.45,0,0,0-4.36-1,18.42,18.42,0,0,0-2.23-.15H583.2c-.39,0-.79.1-1.18.1,0,0-.06.09,0,.09a10,10,0,0,1,1.1.16l1.11.12c.74.09,1.47.19,2.21.27,1.48.15,3,.32,4.42.55C590.92,194,590.94,193.8,590.87,193.78Z" style="fill:#37474f"></path><path d="M601.66,152.82c-.44,1.07-6.91,7.41-11.94,6.35-1.64-.35-.13-9.38-.13-9.38l-.05-.7L589,139.4l12.13-5.25,1.73-.68s0,2.66-.07,6c0,.15,0,.3,0,.47s0,.36,0,.54c0,.49,0,1,0,1.5s0,.76,0,1.16,0,.8-.05,1.2A62.37,62.37,0,0,1,601.66,152.82Z" style="fill:#c95f50"></path><path d="M602.77,139.45a19.45,19.45,0,0,1-13.23,9.64L589,139.4l12.13-5.25,1.73-.68S602.83,136.13,602.77,139.45Z" style="fill:#263238"></path><path d="M577.57,122.31c-5,16.29,4.21,21.11,7.73,22.19,3.19,1,14.17,3.87,20.81-11.81s.64-23.16-6.53-25.77S582.56,106,577.57,122.31Z" style="fill:#c95f50"></path><path d="M604.32,133.31c-2.7-.5-1.82-6.22-1.82-6.22s-5.39-1.43-5.1-9.65a12.33,12.33,0,0,0,.67,7s-9.23-3.55-11.1-12.57c0,0,.51,4.48,1.62,6.32a11.55,11.55,0,0,1-4.76-5.94s-2.89,4.14-4.51,5.07c0,0,4.32-20.64,22.19-9.71,0,0,7.9,2.61,9.32,11.17S604.32,133.31,604.32,133.31Z" style="fill:#263238"></path><path d="M604.3,138.7a3.75,3.75,0,0,1-.81,0,2.65,2.65,0,0,1-.79-.14,2.28,2.28,0,0,1-.89-.52,2.74,2.74,0,0,1-.53-.62,3.36,3.36,0,0,1-.43-1.07l1.87-4.25s4.75-4.42,6.83-2.62S607.3,138.26,604.3,138.7Z" style="fill:#c95f50"></path><path d="M608.26,131.47s0,.07,0,.07c-2.11.38-3.52,2-4.63,3.67a1.59,1.59,0,0,1,2.41.07c.05.05,0,.12-.07.1a1.78,1.78,0,0,0-2,.19,8.83,8.83,0,0,0-1.24,1.35c-.13.16-.42,0-.31-.19,0,0,0,0,0,0C602.88,134.2,605.55,131.15,608.26,131.47Z" style="fill:#263238"></path><path d="M605.72,138.52h0a.47.47,0,0,0,.31-.59l-.28-.91a.48.48,0,0,0-.59-.32h0a.48.48,0,0,0-.31.6l.28.91A.46.46,0,0,0,605.72,138.52Z" style="fill:#ffcf06"></path><path d="M610.19,133.79h0a.48.48,0,0,0-.23-.63l-1.5-.69a.47.47,0,0,0-.63.23h0a.47.47,0,0,0,.23.63l1.5.69A.47.47,0,0,0,610.19,133.79Z" style="fill:#ffcf06"></path><path d="M610.74,132.32h0a.47.47,0,0,0-.33-.58l-1.6-.43a.47.47,0,0,0-.58.33h0a.48.48,0,0,0,.34.59l1.59.42A.47.47,0,0,0,610.74,132.32Z" style="fill:#ffcf06"></path><path d="M580.62,121.46a9,9,0,0,0,1.15.11,1.86,1.86,0,0,0,1.19-.11.59.59,0,0,0,.21-.7,1.45,1.45,0,0,0-1.28-.75,2.16,2.16,0,0,0-1.53.32A.64.64,0,0,0,580.62,121.46Z" style="fill:#263238"></path><path d="M591.51,124.23a10,10,0,0,1-.92-.69c-.35-.27-.66-.45-.81-.88a.6.6,0,0,1,.31-.66,1.47,1.47,0,0,1,1.46.3,2.18,2.18,0,0,1,.91,1.27A.63.63,0,0,1,591.51,124.23Z" style="fill:#263238"></path><path d="M588.43,127s.07.07.06.11c-.32,1.09-.51,2.4.39,3,0,0,0,.07,0,.05C587.68,129.66,588,127.94,588.43,127Z" style="fill:#263238"></path><path d="M589.72,126.07c1.8.33,1,3.91-.67,3.6S588.21,125.79,589.72,126.07Z" style="fill:#263238"></path><path d="M590.38,126.41c.27.28.49.7.86.82s.84-.16,1.21-.46c0,0,.06,0,0,.06-.14.69-.56,1.33-1.32,1.27s-1-.77-1.06-1.5C590.12,126.47,590.27,126.3,590.38,126.41Z" style="fill:#263238"></path><path d="M582.24,125.12c0-.05-.1,0-.11.07-.2,1.12-.62,2.37-1.71,2.52,0,0,0,.07,0,.07C581.68,127.87,582.22,126.21,582.24,125.12Z" style="fill:#263238"></path><path d="M581.49,123.74c-1.75-.52-2.66,3-1,3.52S583,124.18,581.49,123.74Z" style="fill:#263238"></path><path d="M580.69,123.79c-.33.11-.69.38-1,.32s-.59-.53-.74-1c0-.05,0,0-.07,0-.19.67-.15,1.44.47,1.74s1.15-.2,1.49-.84C580.87,124,580.82,123.74,580.69,123.79Z" style="fill:#263238"></path><path d="M586.27,136c-.31.21-.65.53-1.06.49a2.93,2.93,0,0,1-1.15-.49s-.08,0-.06.05a1.52,1.52,0,0,0,1.31.85,1.21,1.21,0,0,0,1.06-.83C586.4,136,586.32,135.94,586.27,136Z" style="fill:#263238"></path><path d="M582.52,130.63s-.62,1.6-.8,2.38c0,.07.16.15.43.23h0a3.81,3.81,0,0,0,3.92-.53.09.09,0,0,0-.09-.14,5.73,5.73,0,0,1-3.61.17c0-.22,1.15-2.7,1-2.74a7.19,7.19,0,0,0-1.86,0c1.19-3.37,2.91-6.52,4-9.89,0-.12-.13-.2-.19-.1a57.84,57.84,0,0,0-4.81,10.47C580.44,130.9,582.18,130.69,582.52,130.63Z" style="fill:#263238"></path><path d="M582.51,133.19a4.46,4.46,0,0,0,1.4,1.76,2,2,0,0,0,1.16.35c.9,0,1.11-.79,1.12-1.49a4.73,4.73,0,0,0-.13-1.12A5.76,5.76,0,0,1,582.51,133.19Z" style="fill:#263238"></path><path d="M583.91,135a2,2,0,0,0,1.16.35c.9,0,1.11-.79,1.12-1.49A2.05,2.05,0,0,0,583.91,135Z" style="fill:#ff98b9"></path><path d="M602.66,161.79c21-2.51,48.18-13.07,51.67-19.3,4.37-7.81,8.3-22.88,12.29-43.44.78-4-28.14-14.4-28.88-10.08-1.65,9.6-5,34.3-6.81,39-1.25,3.29-20.5,14.76-33.45,23.86C582.91,162,591.11,163.17,602.66,161.79Z" style="fill:#c95f50"></path><path d="M673,76.85c-.19,6.8-6,23.82-8.7,26.6s-23-6.94-24.16-10.74-2.09-26,2.4-31.35S673.22,69.8,673,76.85Z" style="fill:#c95f50"></path><path d="M637.29,70.89c1.78,3.14,4.45-.75,4.45-.75s-2.5,6.53.58,9,6-2.39,6.27-2.73c-.13.35-2.27,6.4,1.09,8.62s5.74-3.06,5.89-3.41c0,.37-.2,5.21,2.73,6.31,5.05,1.9,5.84-10.46,9.23-13.2,0,0,5.3,2.46,5.49,2.58,0,0,1-9-3-13.35a3.75,3.75,0,0,0-4.64-.82s.74-3.75-1.85-5.58c-1.33-.94-4,.36-4,.36s.46-3-1.94-4.51c-1.92-1.19-4.31.3-4.31.3s-.9-3.11-3.25-3.69C645.32,48.89,633.49,64.18,637.29,70.89Z" style="fill:#c95f50"></path><path d="M652.9,53.94s0-.12-.07-.08a33.51,33.51,0,0,0-11.25,16.47c-.06.21.25.4.36.18A68.61,68.61,0,0,1,652.9,53.94Z" style="fill:#263238"></path><path d="M659.58,57.87c.06,0,0-.14-.1-.09-5.25,4.24-10,11.19-11.16,18.74,0,.26.18.53.25.23C649.73,71.79,655.35,62.47,659.58,57.87Z" style="fill:#263238"></path><path d="M655.66,82.23c1.41-7.2,5-13.22,9.53-18.88.06-.07-.05-.15-.12-.1-3,2.16-5.51,6.07-7.21,9.28a19.33,19.33,0,0,0-2.45,9.65C655.42,82.32,655.64,82.38,655.66,82.23Z" style="fill:#263238"></path><path d="M641.74,70.14a21.55,21.55,0,0,0-.73,4,7.38,7.38,0,0,0,.51,3.82,2.41,2.41,0,0,0,1.27,1.19,3.5,3.5,0,0,0,1.78.21,4.3,4.3,0,0,0,2.81-2.09l1.56-2.52-.59,2.91a12,12,0,0,0-.18,3.91,4.34,4.34,0,0,0,1.64,3.13,2.47,2.47,0,0,0,3.11-.07A7.48,7.48,0,0,0,655,81.48l1.28-3.26-.14,3.49a11.27,11.27,0,0,0,.25,2.89A4.65,4.65,0,0,0,657.61,87a2.23,2.23,0,0,0,2.3.49,5,5,0,0,0,2-1.92,38.31,38.31,0,0,0,2.63-5.47c.41-.94.82-1.88,1.27-2.81a7.28,7.28,0,0,1,1.75-2.52A8,8,0,0,0,666,77.41c-.38,1-.71,1.92-1,2.89A33.08,33.08,0,0,1,662.59,86a5.8,5.8,0,0,1-2.28,2.39,3.18,3.18,0,0,1-3.42-.6,5.71,5.71,0,0,1-1.58-3,12,12,0,0,1-.33-3.22l1.14.23a8.57,8.57,0,0,1-2.44,3.69,3.56,3.56,0,0,1-2.27.84,4,4,0,0,1-2.27-.76,5.46,5.46,0,0,1-2.08-4,13.22,13.22,0,0,1,.26-4.3l1,.39a5.12,5.12,0,0,1-3.62,2.4,4.38,4.38,0,0,1-2.18-.37,3.16,3.16,0,0,1-1.55-1.59,7.53,7.53,0,0,1-.28-4.14A18.22,18.22,0,0,1,641.74,70.14Z" style="fill:#263238"></path><path d="M639.52,94.17S623,63.89,638.43,63.49c3.73-.1,18.65,5.95,17.57,9-1.39,3.9-8.06,2.7-12.13,1.28,0,0,4.89,8.62-.09,13.82A19.8,19.8,0,0,0,639.52,94.17Z" style="fill:#c95f50"></path><path d="M637.38,63.47a15,15,0,0,1,4.37.47A34.36,34.36,0,0,1,646,65.22a51.16,51.16,0,0,1,8,3.72,8.55,8.55,0,0,1,1.85,1.45,3.07,3.07,0,0,1,.69,1.15,2.29,2.29,0,0,1,.11.73,2.1,2.1,0,0,1-.14.72,3.73,3.73,0,0,1-1.68,2,7,7,0,0,1-2.29.73,13.11,13.11,0,0,1-4.56-.23,30,30,0,0,1-4.29-1.21l.61-.75a18,18,0,0,1,1.27,3.14,16.78,16.78,0,0,1,.66,3.3,11.33,11.33,0,0,1-.21,3.34,8.68,8.68,0,0,1-1.28,3,9.87,9.87,0,0,0,.93-3.11,11.9,11.9,0,0,0-.09-3.21,15.69,15.69,0,0,0-.8-3.1A17.29,17.29,0,0,0,643.43,74l-.68-1.13,1.28.38a30.62,30.62,0,0,0,4.17,1,13,13,0,0,0,4.16.17c1.3-.2,2.64-.81,3-1.88.4-.91-.83-1.93-2-2.67a40.47,40.47,0,0,0-3.77-2.1c-1.29-.66-2.59-1.31-3.93-1.88A27.85,27.85,0,0,0,637.38,63.47Z" style="fill:#263238"></path><path d="M606.73,162.18a8.31,8.31,0,0,1-3.15,2.79s-.06,0,0,0a16.85,16.85,0,0,0,2.79-2.54l-1.37.76c-1.66.91-2,1.11-3.76,1.92,0,0-.07,0,0,0,2.72-1.81,5.47-3.37,8.29-5.05.75-.45,1.7-.28-.33.85C608.36,161.24,607.37,161.82,606.73,162.18Z" style="fill:#263238"></path></g><g id="freepik--character-3--inject-117"><path d="M457.9,148c-21,12.75-40.37,28.94-40.56,36.47-.27,10.13,10,31.74,16.4,42.47,1.87,3.15,26.11-11.93,24.11-15.3-2.42-4.07-15.26-25-15.37-25.42-.23-1,15.88-24.27,19.87-29.74C469,147.32,467.25,142.32,457.9,148Z" style="fill:#ad6359"></path><path d="M444.13,242.52c-4.68-3.91-11.13-15.65-11.59-19.08s19.12-15.05,22.42-13.75,18.05,15.69,19.28,21.79S449,246.56,444.13,242.52Z" style="fill:#ad6359"></path><path d="M470.46,222.48c-3.19-.49-1.94,3.55-1.94,3.55s-3.21-5.38-6.7-4.61-1.67,5.58-1.55,5.93c-.18-.29-3.25-5.16-6.67-4s-1,5.74-.87,6c-.25-.21-3.56-3-6-1.57-4.14,2.5,4.12,9.92,4.17,13.83,0,0-6.62.83-6.81.9,0,0,7.72,7.21,13,6.86a3.37,3.37,0,0,0,3.15-2.82s2.23,2.6,5,1.79c1.4-.41,2-3,2-3a4.24,4.24,0,0,0,4.26,1.14c1.9-.69,2.18-3.2,2.18-3.2s2.69,1.09,4.4-.24C481.49,240.35,477.3,223.53,470.46,222.48Z" style="fill:#ad6359"></path><path d="M473.73,242.88a0,0,0,0,0,.09,0,30,30,0,0,0-5.35-17.06c-.11-.16-.41,0-.32.16A61.76,61.76,0,0,1,473.73,242.88Z" style="fill:#263238"></path><path d="M467.25,245.4c0,.07.12,0,.12,0a28.13,28.13,0,0,0-7-18.25c-.16-.18-.48-.17-.31,0C462.92,230.74,466.36,239.87,467.25,245.4Z" style="fill:#263238"></path><path d="M452.28,229.12c4.29,5,6.55,10.84,8,17.19,0,.08.14.05.14,0,.13-3.3-1.22-7.24-2.53-10.23a17.32,17.32,0,0,0-5.44-7.08C452.36,228.9,452.19,229,452.28,229.12Z" style="fill:#263238"></path><path d="M468.52,226a19.89,19.89,0,0,0-2.39-2.71,6.56,6.56,0,0,0-3-1.76,2.16,2.16,0,0,0-1.54.23,3.09,3.09,0,0,0-1.13,1.14,3.86,3.86,0,0,0-.09,3.14l.9,2.49-1.71-2a10.81,10.81,0,0,0-2.66-2.3,3.89,3.89,0,0,0-3.11-.59,2.23,2.23,0,0,0-1.68,2.23,6.71,6.71,0,0,0,1,3.2l1.58,2.71-2.37-2a9.82,9.82,0,0,0-2.17-1.43,4.22,4.22,0,0,0-2.38-.49,2,2,0,0,0-1.62,1.34,4.37,4.37,0,0,0,.27,2.46,33.89,33.89,0,0,0,2.38,4.89c.44.81.88,1.62,1.28,2.45a6.64,6.64,0,0,1,.8,2.64,7.11,7.11,0,0,0-1-2.52c-.46-.79-1-1.56-1.45-2.33a29.87,29.87,0,0,1-2.7-4.87,5.16,5.16,0,0,1-.4-2.94,2.84,2.84,0,0,1,2.31-2.07,5.18,5.18,0,0,1,3,.52,11.37,11.37,0,0,1,2.44,1.56l-.79.68a7.78,7.78,0,0,1-1.24-3.77,3.21,3.21,0,0,1,.67-2.07,3.65,3.65,0,0,1,1.79-1.17,4.89,4.89,0,0,1,3.95.74,11.58,11.58,0,0,1,2.88,2.57l-.81.47a4.56,4.56,0,0,1,.32-3.88,3.76,3.76,0,0,1,1.47-1.33,2.78,2.78,0,0,1,2-.22,6.8,6.8,0,0,1,3.07,2.1A16.23,16.23,0,0,1,468.52,226Z" style="fill:#263238"></path><path d="M457.91,211.7s24.78,7.43,17.13,15.69c-2.27,2.46-14.54,9.83-16.07,7.39-2-3.14,2.58-7.17,5.83-9.25,0,0-8.78-1.34-9.68-7.73A6.44,6.44,0,0,1,457.91,211.7Z" style="fill:#ad6359"></path><path d="M475.63,226.66a13.41,13.41,0,0,1-2.76,2.82,30.36,30.36,0,0,1-3.24,2.27,47,47,0,0,1-7.08,3.59,7.26,7.26,0,0,1-2,.49,2.74,2.74,0,0,1-1.19-.15,1.87,1.87,0,0,1-.58-.32,2,2,0,0,1-.43-.5,3.37,3.37,0,0,1-.44-2.27,6.21,6.21,0,0,1,.76-2,11.72,11.72,0,0,1,2.68-3.08,28,28,0,0,1,3.24-2.34l.19.83a15.71,15.71,0,0,1-2.91-.84,15.13,15.13,0,0,1-2.69-1.37,10.17,10.17,0,0,1-2.24-2,8.06,8.06,0,0,1-1.44-2.59,9.07,9.07,0,0,0,1.68,2.38,10.7,10.7,0,0,0,2.3,1.72,14.36,14.36,0,0,0,2.64,1.15,15.33,15.33,0,0,0,2.78.65l1.17.14-1,.69a30.59,30.59,0,0,0-3.05,2.36,11.63,11.63,0,0,0-2.42,2.84,3.22,3.22,0,0,0-.35,3.16c.41.79,1.82.49,3,.09s2.39-1,3.57-1.49,2.36-1.1,3.5-1.72A24.86,24.86,0,0,0,475.63,226.66Z" style="fill:#263238"></path><path d="M446.28,180.19l-17.55-14s21-17.83,32.36-21.56,7,5,3.13,11.15S446.28,180.19,446.28,180.19Z" style="fill:#B0BEC5"></path><path d="M464.22,155.76c-3.92,6.17-17.94,24.43-17.94,24.43l-13-10.38L463.39,144C471.76,142.18,467.83,150,464.22,155.76Z" style="opacity:0.1"></path><path d="M448.63,175.75c-2.26-2.17-4.83-4.08-7.28-6s-5.17-3.84-7.73-5.79c-.07-.06-.18.06-.1.12,2.42,2,4.76,4.15,7.26,6.08a88.3,88.3,0,0,0,7.8,5.69S448.67,175.78,448.63,175.75Z" style="fill:#263238"></path><path d="M422.76,373.05s-20.59,36.42-20.61,36.44c-3.3,7.35-6.07,13.84-7.19,17.34a.11.11,0,0,0,0,.06,5.61,5.61,0,0,0-.48,2.51s0,.05,0,.06c1.52,2.47,59.44,30.62,61.79,30.92s3.4-6.37,2-9.26-18.74-23.59-18.74-23.59L459.77,391Z" style="fill:#ad6359"></path><path d="M455.35,460.17c-2.35-.31-59.35-28.24-60.86-30.7a.36.36,0,0,1,0-.07,5.61,5.61,0,0,1,.48-2.51s0,0,0-.06c1.12-3.49,3.89-10,7.19-17.34,0,0,3.47-6.37,4.85-8.57l36.84,19-4.29,7.57S456,448,457.36,450.9,457.7,460.48,455.35,460.17Z" style="fill:#ebebeb"></path><path d="M456.41,459.38c-2.37-.36-60.08-30.09-61.56-32.61-.57-1,3.27-9.62,8.21-19.95l.16-.32,37.44,18.76-.34.63s17,21.26,18.34,24.21S458.77,459.75,456.41,459.38Z" style="fill:#B0BEC5"></path><path d="M456.9,456.81c-9.6-5.25-48.84-25.52-58.73-30-.08,0-.11,0,0,.06,9.41,5.41,48.8,25.36,58.68,30.08C457,457.07,457.11,456.92,456.9,456.81Z" style="fill:#fff"></path><path d="M443.39,427.61c-3.46-2.69-8.44-4.51-12.77-3.29-.17.05-.1.29.05.31a60.64,60.64,0,0,1,12.46,3.46A.28.28,0,0,0,443.39,427.61Z" style="fill:#263238"></path><path d="M445.3,430.7c-3.46-2.69-8.44-4.51-12.77-3.29-.17,0-.1.28,0,.31A60.28,60.28,0,0,1,445,431.18.28.28,0,0,0,445.3,430.7Z" style="fill:#263238"></path><path d="M447.21,433.79c-3.46-2.69-8.45-4.51-12.78-3.29-.17.05-.1.28.05.31a60.62,60.62,0,0,1,12.46,3.45A.27.27,0,0,0,447.21,433.79Z" style="fill:#263238"></path><path d="M409.42,417.87c-3.11-4.25-9.71.57-6.6,4.83S412.53,422.12,409.42,417.87Z" style="fill:#fff"></path><path d="M442.86,429.08,447,455a98.94,98.94,0,0,0,9.39,4.39c2.36.37,3.57-6.35,2.26-9.28C457.65,447.87,447.65,435.12,442.86,429.08Z" style="opacity:0.1"></path><path d="M458.35,457.77c.83.93-1.18,4.28-2.07,4.17s-63.67-32.79-64.61-33.59,1.42-4.42,2.76-4S458.35,457.77,458.35,457.77Z" style="fill:#B0BEC5"></path><path d="M458.35,457.77c.83.93-1.18,4.28-2.07,4.17s-63.67-32.79-64.61-33.59,1.42-4.42,2.76-4S458.35,457.77,458.35,457.77Z" style="opacity:0.4"></path><path d="M406.92,397.51l41.5,22.16s52.39-74.66,53.44-94.28c1.45-27.09-21.68-113.1-21.68-113.1l-36.9-.25s15,88.45,13.78,103.54C456.42,323.48,406.92,397.51,406.92,397.51Z" style="fill:#37474f"></path><path d="M452.05,411.1c-2.14-1.54-21.82-13-36.8-20.23-.1-.05-.17.1-.08.16,4.55,3,33.92,19.08,36.77,20.23C452,411.29,452.14,411.16,452.05,411.1Z" style="fill:#263238"></path><path d="M462.18,296.68c-1.71-12.94-3.6-25.86-5.75-38.74s-4.44-25.87-7.14-38.7c-.33-1.57-.68-3.13-1-4.7a.19.19,0,0,0-.38.07c2.28,12.74,4.62,25.46,6.71,38.23s4,25.55,5.79,38.37q.66,4.76,1.27,9.52a86.22,86.22,0,0,1,.94,9.88,25.26,25.26,0,0,1-1.58,9.27,54.88,54.88,0,0,1-4.25,8.33c-6.68,11.29-36.57,60.64-37.35,62.08-.05.09.08.19.14.09,7.17-11.13,29.43-46.68,36.2-58.16,3.05-5.18,6.55-10.42,7.55-16.46C464.35,309.48,463,302.91,462.18,296.68Z" style="fill:#263238"></path><path d="M445.78,397.51s-.42,42.1-.42,42.13c.22,8.05.56,15.1,1.08,18.74a.13.13,0,0,0,0,.06,5.64,5.64,0,0,0,.66,2.47s0,0,.05,0c2.44,1.55,66.84,1.65,69.08.9s.28-7.22-2.21-9.22-27.15-13.06-27.15-13.06l0-42.06Z" style="fill:#ad6359"></path><path d="M445.44,431s-.08,8.62-.08,8.65c.22,8.05.56,15.1,1.08,18.74a.13.13,0,0,0,0,.06,10.69,10.69,0,0,0,.66,2.47s0,0,.05,0c2.44,1.55,66.84,1.65,69.08.9s.28-7.22-2.21-9.22-27.15-13.06-27.15-13.06v-8.77Z" style="fill:#ebebeb"></path><path d="M516.28,461.78c-2.28.72-67.19-.42-69.63-2-.94-.6-1.33-10.07-1.46-21.52v-.36l41.88.27,0,.71s24.65,11.55,27.15,13.61S518.56,461.06,516.28,461.78Z" style="fill:#B0BEC5"></path><path d="M515.59,459.25c-10.94-.46-55.1-1.29-65.94-.91-.09,0-.09.06,0,.06,10.83.7,55,1.17,65.93,1C515.81,459.43,515.82,459.26,515.59,459.25Z" style="fill:#fff"></path><path d="M490.56,439c-4.3-.88-9.57-.31-12.92,2.7-.13.11,0,.3.18.25a61,61,0,0,1,12.71-2.41A.27.27,0,0,0,490.56,439Z" style="fill:#263238"></path><path d="M493.63,441c-4.29-.88-9.57-.32-12.91,2.69-.13.12,0,.3.18.26a60.86,60.86,0,0,1,12.7-2.41A.27.27,0,0,0,493.63,441Z" style="fill:#263238"></path><path d="M496.71,442.89c-4.3-.88-9.57-.31-12.92,2.7-.13.12,0,.3.18.26a60.19,60.19,0,0,1,12.71-2.41A.28.28,0,0,0,496.71,442.89Z" style="fill:#263238"></path><path d="M517.31,459.47c1.15.47.83,4.36,0,4.66s-71.61-1.26-72.81-1.55-.68-4.6.72-4.79S517.31,459.47,517.31,459.47Z" style="fill:#B0BEC5"></path><path d="M517.31,459.47c1.15.47.83,4.36,0,4.66s-71.61-1.26-72.81-1.55-.68-4.6.72-4.79S517.31,459.47,517.31,459.47Z" style="opacity:0.4"></path><path d="M455.77,445.33c-4.66-2.44-8.45,4.81-3.78,7.25S460.45,447.77,455.77,445.33Z" style="fill:#fff"></path><path d="M473.94,212.2s0,0,0,0c-.24.76-13.5,37.1-14.75,37.68-1.42.65,29.29,52.23,31.11,76.2,1.16,15.32-1.12,102.06-1.12,102.06H444.27s2.16-78,3.18-102.69c.4-9.58-30.82-57.28-31.2-87-.13-9.37,6.6-26.47,6.6-26.47Z" style="fill:#37474f"></path><path d="M447.71,324.83c0-.4-.31-.53-.34-.12-1,13.37-1.25,26.67-1.89,40.06s-.28,16.58-.87,29.93c-.34,7.56,0,15.14-.19,22.7a.09.09,0,0,0,.18,0C446,404.09,447.7,332.4,447.71,324.83Z" style="fill:#263238"></path><path d="M490.28,326.65a66.32,66.32,0,0,0-.91-9.85,48.89,48.89,0,0,0-2.77-9.24c-2.48-6.26-5.41-12.35-8.22-18.47s-5.73-12.36-8.72-18.48q-2.54-5.17-5.09-10.31c-1.72-3.47-3.58-6.88-5.39-10.31a.12.12,0,0,0-.21.11c2.88,6.18,5.72,12.37,8.59,18.55s5.71,12.38,8.53,18.58,5.57,12.21,8.19,18.38a59.29,59.29,0,0,1,3.2,9.08,52.77,52.77,0,0,1,1.32,9.78c.43,7.66.65,15.36,1.4,23,0,.1.16.09.17,0C490.6,340.54,490.49,333.57,490.28,326.65Z" style="fill:#263238"></path><path d="M485.91,419.14c-2.61-.31-22.51-.84-39.14,0a.09.09,0,0,0,0,.17c5.43.44,36.08.39,39.12,0C486,419.33,486,419.16,485.91,419.14Z" style="fill:#263238"></path><path d="M465.37,247.9a85,85,0,0,0-14,4.87.15.15,0,0,0,.09.29c4.72-1.48,9.51-2.86,14.13-4.59A.3.3,0,0,0,465.37,247.9Z" style="fill:#263238"></path><path d="M469.9,217.13c0-.16-.26-.22-.28,0-.51,5.36-1.34,10-2.3,15-.45,2.3-3.64,15-7.57,13.61-.66-.23-.94-.93-.94-1.95a16.23,16.23,0,0,1,.94-3.89c.72-2.64,1.36-5.31,1.87-8A74,74,0,0,0,463,216.64a.13.13,0,0,0-.26,0,140.14,140.14,0,0,1-3.38,20.86c-.85,3.29-3,8.15.4,9s6.67-7.3,7.34-9.56A77.52,77.52,0,0,0,469.9,217.13Z" style="fill:#263238"></path><path d="M459.82,246.05a21.35,21.35,0,0,0-1.18,2.57,5.86,5.86,0,0,0-.6,2.15c0,.14.18.17.27.09a8.22,8.22,0,0,0,1.16-2c.39-.79.79-1.58,1.16-2.38A.45.45,0,0,0,459.82,246.05Z" style="fill:#263238"></path><path d="M452.31,338c.23-6.38.94-13.08-1.16-19.24a64.19,64.19,0,0,0-4.09-8.73q-2.34-4.5-4.59-9.05c-6-12.12-11.65-24.42-16.69-37a78.09,78.09,0,0,1-5.48-18.72A57.44,57.44,0,0,1,421.56,225c.37-1.66.78-3.32,1.23-5,0-.12-.14-.19-.18-.07a67,67,0,0,0-3.51,19.48A55.27,55.27,0,0,0,422.48,258c2.15,6.27,4.85,12.36,7.5,18.43q4.11,9.38,8.53,18.61c2.94,6.12,6.07,12.14,9.17,18.18a33,33,0,0,1,3.45,9.18,46.8,46.8,0,0,1,.37,10c-.53,14.12-1.75,61.11-1.93,75.2l-.06,5.36c0,.16.24.18.25,0C450.65,399,451.8,352.1,452.31,338Z" style="fill:#263238"></path><path d="M442.24,221.35c0-.1-.16-.08-.17,0-.53,3.88-.83,7.92-2.71,11.44-1.72,3.24-4.73,5.32-8,6.78a59.81,59.81,0,0,1-5.83,2.15c-.14.05-.11.27.05.23,3.71-.77,7.49-1.63,10.71-3.72,3.46-2.23,5.24-5.8,5.81-9.8A35,35,0,0,0,442.24,221.35Z" style="fill:#263238"></path><path d="M419.38,221.32h63.41c1.08-.83,3.82-55.56-4.51-72.84-2.08-4.32-11.38-7-16.56-4.5C436.07,156.39,418.93,220.55,419.38,221.32Z" style="fill:#B0BEC5"></path><path d="M473.27,157.87c-2.95-.49-7.89-7.25-9.29-12.36-.09-.35,1.16-3.51,2.5-7.42.8-2.37,1.64-5,2.23-7.52l14.69,7.49a40.71,40.71,0,0,0-3.77,9.19,5.58,5.58,0,0,0-.13,1c0,.05,0,.11,0,.18C479.33,150.48,477.9,158.63,473.27,157.87Z" style="fill:#ad6359"></path><path d="M479.49,148.29a1.21,1.21,0,0,1,0,.18,10.91,10.91,0,0,1-1.63-.3c-8.81-2.31-8.41-13.62-8.07-17.06l13.63,6.95a41.11,41.11,0,0,0-3.79,9.19A7.77,7.77,0,0,0,479.49,148.29Z" style="fill:#263238"></path><path d="M464.78,115.65c-1.17,5.93,3.57,22.23,8,25.52,6.48,4.76,16.24,4.28,20.07-3.32,3.72-7.36-2.83-28.5-7.75-31.39C477.91,102.19,466.5,106.89,464.78,115.65Z" style="fill:#ad6359"></path><path d="M490.72,115.68c-1.18-1.84-3-5.27-4.53-6.26s-.66,2.07-2.89,2.75c-2.58.78-5.21-1.46-7.81-1.82s-5.61,4-5,7.56,1.7,8.33,1.62,10.94-4.27,5.07-4.27,5.07-7.43-14.6-3.26-22.47,16.89-8.7,20.7-5.57S490.72,115.68,490.72,115.68Z" style="fill:#263238"></path><path d="M482.38,123.94s-.07.08-.06.12c.35,1.09.56,2.4-.33,3,0,0,0,.07,0,0C483.19,126.65,482.88,124.92,482.38,123.94Z" style="fill:#263238"></path><path d="M481.07,123.07c-1.81.37-.94,4,.74,3.61S482.58,122.76,481.07,123.07Z" style="fill:#263238"></path><path d="M488.48,122.55s.1,0,.11.07c.23,1.12.69,2.37,1.79,2.49,0,0,0,.06,0,.07C489.11,125.3,488.52,123.65,488.48,122.55Z" style="fill:#263238"></path><path d="M489.19,121.15c1.75-.58,2.77,3,1.14,3.5S487.72,121.62,489.19,121.15Z" style="fill:#263238"></path><path d="M479.25,121.78c.46-.25.84-.55,1.27-.83a2.46,2.46,0,0,0,1.14-1.09.79.79,0,0,0-.35-.89,1.91,1.91,0,0,0-1.94.27,2.79,2.79,0,0,0-1.3,1.58A.83.83,0,0,0,479.25,121.78Z" style="fill:#263238"></path><path d="M490.14,119c-.52,0-1,0-1.52,0a2.48,2.48,0,0,1-1.54-.32.77.77,0,0,1-.18-.93,1.93,1.93,0,0,1,1.78-.81,2.82,2.82,0,0,1,1.95.64A.83.83,0,0,1,490.14,119Z" style="fill:#263238"></path><path d="M483.2,134.4a1.72,1.72,0,0,0,1.08.46,3.09,3.09,0,0,0,1.15-.53,0,0,0,0,1,.06,0,1.56,1.56,0,0,1-1.3.9,1.21,1.21,0,0,1-1.09-.81C483.07,134.41,483.15,134.37,483.2,134.4Z" style="fill:#263238"></path><path d="M483.69,130.8a3.82,3.82,0,0,0,2.89,1.17,4.7,4.7,0,0,0,1.39-.22l.25-.08.24-.09a.27.27,0,0,0,.17-.3h0a.53.53,0,0,0,0-.12h0l0-.1c-.15-.87-.51-2.16-.51-2.16.35.09,2.11.48,2,0a58.78,58.78,0,0,0-3.86-11.24.11.11,0,0,0-.2.07c.81,3.58,2.25,7,3.13,10.57a7,7,0,0,0-1.92-.18c-.11.07.73,2.49.77,2.89v0a5.38,5.38,0,0,1-4.2-.41C483.67,130.63,483.6,130.73,483.69,130.8Z" style="fill:#263238"></path><path d="M487.37,131.42a4.62,4.62,0,0,1-1.52,1.78,2,2,0,0,1-1.22.33c-.95-.05-1.14-.87-1.12-1.6a4.69,4.69,0,0,1,.18-1.16A6,6,0,0,0,487.37,131.42Z" style="fill:#263238"></path><path d="M485.85,133.2a2,2,0,0,1-1.22.33c-.95-.05-1.14-.87-1.12-1.6A2.15,2.15,0,0,1,485.85,133.2Z" style="fill:#ff98b9"></path><path d="M481.45,130.61A4.81,4.81,0,1,1,485.2,124h0a4.82,4.82,0,0,1-2.6,6.29A5.18,5.18,0,0,1,481.45,130.61Zm-1.29-8.89a4,4,0,0,0-1,.28,4.13,4.13,0,1,0,1-.28Z" style="fill:#B0BEC5"></path><path d="M492.1,127.7c-1.82.27-3.74-1.36-4.39-3.78a5.64,5.64,0,0,1,.12-3.51,3,3,0,0,1,4.95-1.33,5.79,5.79,0,0,1,1.85,3c.68,2.56-.31,5.06-2.22,5.57A1.55,1.55,0,0,1,492.1,127.7Zm-1.77-8.78-.23,0a2.56,2.56,0,0,0-1.68,1.67,5.12,5.12,0,0,0-.09,3.11c.59,2.22,2.34,3.69,3.91,3.27s2.36-2.56,1.77-4.78a5.09,5.09,0,0,0-1.63-2.66A2.66,2.66,0,0,0,490.33,118.92Z" style="fill:#B0BEC5"></path><path d="M485.19,124.58l-.52-.37c.54-.78,2-2,3.42-1.1l-.34.55C486.44,122.84,485.24,124.51,485.19,124.58Z" style="fill:#B0BEC5"></path><path d="M464.8,131.3l-.62-.13c.06-.3.66-2.88,2-3.48s9.78-2,10.14-2l.11.63c-2.45.41-9,1.58-10,2S465,130.6,464.8,131.3Z" style="fill:#B0BEC5"></path><path d="M470.39,129s-4.41-4.9-6.68-3.27,1.51,9.06,4.49,9.77a2.93,2.93,0,0,0,3.7-2Z" style="fill:#ad6359"></path><path d="M464.85,127.78a0,0,0,0,0,0,.08c2.1.57,3.39,2.29,4.36,4.13a1.61,1.61,0,0,0-2.45-.15.06.06,0,0,0,.06.1,1.82,1.82,0,0,1,2.05.39A8.09,8.09,0,0,1,470,133.8c.12.17.43,0,.34-.17l0,0C470,131,467.62,127.7,464.85,127.78Z" style="fill:#263238"></path><path d="M456.89,160.15c-.31,26.45,6.13,60.47,17.23,60.08,10.13-.36,26.8-18.67,36.3-34.36,1.9-3.14-21.29-16.07-23.65-12.94-3.39,4.52-8.78,11.06-9,11.45-.56.86-3.06-10.55-9.06-26.41C462.57,141.85,457.06,145,456.89,160.15Z" style="fill:#ad6359"></path><path d="M514.65,145.24c2.14,2.41-4.23,7.2-4.23,7.2a6,6,0,0,1,4,.83c2,1.38.74,5.16.74,5.16a7.34,7.34,0,0,1,4,1.53c1.81,1.52,1.06,5.52,1.06,5.52a6.43,6.43,0,0,1,2.7,3.58c1,4-3.69,8.28-6.08,11.49-2.57,3.45-7.2,7.22-9.37,9.94L485.25,175.3s6.06-18.86,9.77-21.84C498.15,151,511.36,141.57,514.65,145.24Z" style="fill:#ad6359"></path><path d="M510.31,152.42a53.65,53.65,0,0,0-10.84,7.45.07.07,0,1,0,.1.11c3.31-2.78,7.44-4.74,10.85-7.39C510.51,152.52,510.41,152.37,510.31,152.42Z" style="fill:#263238"></path><path d="M514.82,158.26a11.34,11.34,0,0,0-2.35,1.85c-.78.72-1.55,1.44-2.31,2.18-1.53,1.48-3,3-4.46,4.55-.06.07,0,.18.1.11,1.52-1.47,3.06-2.91,4.64-4.32l2.39-2.09a12.85,12.85,0,0,0,2.17-2.06A.15.15,0,0,0,514.82,158.26Z" style="fill:#263238"></path><path d="M520.15,165.54a7.94,7.94,0,0,0-2,1.78c-.68.69-1.36,1.37-2,2.05-1.38,1.36-2.75,2.72-4.17,4-.07.07,0,.18.09.12,1.45-1.33,2.92-2.63,4.36-4l2.11-2a7.45,7.45,0,0,0,1.75-2S520.19,165.52,520.15,165.54Z" style="fill:#263238"></path><path d="M477.73,184.38c-2,4.45-3.7,9.49-5.54,14a34.72,34.72,0,0,1,5.54-14Z" style="fill:#263238"></path><path d="M478.24,183.86l-21.43,6.76s-3.09-27.4.13-38.88,8.05-3.07,11,3.61S478.24,183.86,478.24,183.86Z" style="fill:#B0BEC5"></path><path d="M475.86,179.44c-3.07.67-6.09,1.73-9.08,2.68s-6.06,2.15-9.11,3.19c-.09,0-.05.18,0,.15,3-.88,6.1-1.64,9.1-2.64a88.56,88.56,0,0,0,9.07-3.31S475.91,179.42,475.86,179.44Z" style="fill:#263238"></path><path d="M477.41,184.12l.81-.32,0,.08a199.47,199.47,0,0,1-7.78-22.3,197.45,197.45,0,0,1,7.89,22.26l0,.07h-.06l-.84.2Z" style="fill:#263238"></path><path d="M472.19,163.12a12.2,12.2,0,0,1,.75,5.58,21.44,21.44,0,0,1-.75-5.58Z" style="fill:#263238"></path><path d="M459.11,189.89c-.79.32-1.6.61-2.4.9l0-.16a153,153,0,0,1-1.5-20.62,58.78,58.78,0,0,1,.36-6.89c0,2.3.09,4.59.19,6.88.2,4.61.91,15.85,1.19,20.61l-.16-.11,2.34-.61Z" style="fill:#263238"></path><path d="M455.48,169.86a12.17,12.17,0,0,1-.75-5.57,21.8,21.8,0,0,1,.75,5.57Z" style="fill:#263238"></path></g><g id="freepik--musical-notes--inject-117"><path d="M125.54,219.92a2.23,2.23,0,1,1-1.79-2.59A2.23,2.23,0,0,1,125.54,219.92Z" style="fill:#455a64"></path><rect x="124.86" y="208.63" width="1.7" height="11.2" transform="translate(40.42 -19.06) rotate(10.32)" style="fill:#455a64"></rect><path d="M133.21,218a2.23,2.23,0,1,1-1.79-2.59A2.23,2.23,0,0,1,133.21,218Z" style="fill:#455a64"></path><rect x="132.53" y="206.74" width="1.7" height="11.2" transform="translate(40.23 -20.47) rotate(10.33)" style="fill:#455a64"></rect><polygon points="135.22 207 125.61 210.05 125.88 208.57 135.49 205.53 135.22 207" style="fill:#455a64"></polygon><polygon points="134.72 209.78 125.1 212.82 125.37 211.35 134.98 208.31 134.72 209.78" style="fill:#455a64"></polygon><path d="M278.27,136.22a2.23,2.23,0,1,1-1.8-2.59A2.24,2.24,0,0,1,278.27,136.22Z" style="fill:#455a64"></path><rect x="277.59" y="124.94" width="1.7" height="11.2" transform="translate(27.9 -47.79) rotate(10.32)" style="fill:#455a64"></rect><path d="M285.94,134.33a2.23,2.23,0,1,1-1.79-2.6A2.23,2.23,0,0,1,285.94,134.33Z" style="fill:#455a64"></path><rect x="285.26" y="123.04" width="1.7" height="11.2" transform="translate(27.7 -49.21) rotate(10.33)" style="fill:#455a64"></rect><polygon points="287.95 123.31 278.33 126.35 278.6 124.88 288.21 121.83 287.95 123.31" style="fill:#455a64"></polygon><polygon points="287.44 126.08 277.83 129.12 278.1 127.65 287.71 124.61 287.44 126.08" style="fill:#455a64"></polygon><path d="M258.19,180.8a3.27,3.27,0,1,1-2.63-3.81A3.28,3.28,0,0,1,258.19,180.8Z" style="fill:#263238"></path><rect x="257.19" y="164.21" width="2.5" height="16.47" transform="matrix(0.98, 0.18, -0.18, 0.98, 35.08, -43.52)" style="fill:#263238"></rect><path d="M269.48,178a3.28,3.28,0,1,1-2.64-3.8A3.28,3.28,0,0,1,269.48,178Z" style="fill:#263238"></path><rect x="268.48" y="161.42" width="2.5" height="16.47" transform="translate(34.76 -45.58) rotate(10.32)" style="fill:#263238"></rect><polygon points="272.43 161.81 258.29 166.28 258.69 164.12 272.82 159.65 272.43 161.81" style="fill:#263238"></polygon><polygon points="271.69 165.9 257.55 170.37 257.94 168.2 272.08 163.73 271.69 165.9" style="fill:#263238"></polygon><path d="M292.39,226.16a3.28,3.28,0,1,1-2.64-3.81A3.28,3.28,0,0,1,292.39,226.16Z" style="fill:#263238"></path><rect x="291.39" y="209.57" width="2.5" height="16.47" transform="translate(43.78 -48.92) rotate(10.33)" style="fill:#263238"></rect><rect x="301.56" y="207.01" width="2.5" height="4.76" transform="translate(42.43 -50.88) rotate(10.32)" style="fill:#263238"></rect><polygon points="304.35 207.9 292.49 211.64 292.88 209.48 304.75 205.73 304.35 207.9" style="fill:#263238"></polygon><polygon points="303.61 211.98 291.74 215.72 292.14 213.56 304 209.82 303.61 211.98" style="fill:#263238"></polygon><path d="M230.26,189.33a2.46,2.46,0,1,1-2-2.87A2.46,2.46,0,0,1,230.26,189.33Z" style="fill:#455a64"></path><rect x="229.51" y="176.85" width="1.88" height="12.38" transform="matrix(0.98, 0.18, -0.18, 0.98, 36.53, -38.33)" style="fill:#455a64"></rect><rect x="237.16" y="174.93" width="1.88" height="3.58" transform="matrix(0.98, 0.18, -0.18, 0.98, 35.54, -39.82)" style="fill:#455a64"></rect><polygon points="239.26 175.6 230.34 178.41 230.63 176.78 239.55 173.97 239.26 175.6" style="fill:#455a64"></polygon><polygon points="238.7 178.67 229.78 181.48 230.08 179.85 238.99 177.04 238.7 178.67" style="fill:#455a64"></polygon><path d="M156.61,164.86a2.46,2.46,0,1,1-2-2.86A2.46,2.46,0,0,1,156.61,164.86Z" style="fill:#263238"></path><rect x="155.86" y="152.39" width="1.88" height="12.38" transform="translate(30.95 -25.53) rotate(10.32)" style="fill:#263238"></rect><rect x="163.5" y="150.47" width="1.88" height="3.58" transform="translate(29.96 -27.02) rotate(10.33)" style="fill:#263238"></rect><polygon points="165.6 151.14 156.68 153.95 156.98 152.32 165.9 149.51 165.6 151.14" style="fill:#263238"></polygon><polygon points="165.04 154.21 156.12 157.02 156.42 155.39 165.34 152.58 165.04 154.21" style="fill:#263238"></polygon></g></svg>
