<svg xmlns="http://www.w3.org/2000/svg" width="800" height="800" fill="#ebebeb" stroke="#ebebeb" viewBox="0 0 50 50"><g id="SVGRepo_iconCarrier"><g id="Solid"><path d="M41.27167,8.7398C26.828-5.6919,2.02156,4.595,2.00445,24.9983,1.74764,37.35348,12.64883,48.25353,25.00881,47.99551,45.42,47.963,55.67623,23.22469,41.27167,8.7398ZM11.056,15.2891,34.72046,38.94666A16.99691,16.99691,0,0,1,11.056,15.2891Zm27.90521,19.418L15.29681,11.04955A16.99691,16.99691,0,0,1,38.96124,34.70711ZM37.811,23.59823a1.01231,1.01231,0,0,1-1.40022.2l-2.40047-1.7998V26.9279L22.04806,14.96913l2.36049-1.76978a.99042.99042,0,0,1,1.20017,0L37.611,22.19841A1.00258,1.00258,0,0,1,37.811,23.59823ZM15.39687,22.45839l-1.79038,1.33983a1,1,0,1,1-1.20017-1.59981l1.56029-1.16986ZM29.93955,36.99685H17.00715A1.003,1.003,0,0,1,16.007,35.997V23.06832Z"/></g></g></svg>